<?xml version="1.0" standalone="no"?>
<!DOCTYPE svg PUBLIC "-//W3C//DTD SVG 20010904//EN"
 "http://www.w3.org/TR/2001/REC-SVG-20010904/DTD/svg10.dtd">
<svg version="1.0" xmlns="http://www.w3.org/2000/svg"
 width="1200.000000pt" height="1200.000000pt" viewBox="0 0 1200.000000 1200.000000"
 preserveAspectRatio="xMidYMid meet">
<metadata>
Created by potrace 1.14, written by Peter Selinger 2001-2017
</metadata>
<g transform="translate(0.000000,1200.000000) scale(0.100000,-0.100000)"
fill="#000000" stroke="none">
<path d="M8560 9408 c-55 -7 -227 -37 -295 -52 -11 -3 -65 -19 -120 -36 -55
-17 -104 -32 -110 -33 -13 -3 -135 -47 -160 -57 -11 -5 -42 -19 -70 -31 -27
-12 -52 -23 -55 -24 -3 0 -27 -12 -55 -25 -27 -13 -52 -24 -55 -25 -13 -3
-194 -102 -245 -133 -120 -74 -172 -111 -299 -212 -99 -79 -262 -270 -338
-395 -30 -51 -100 -189 -103 -205 0 -3 -11 -34 -22 -70 -36 -107 -57 -203 -69
-305 -2 -22 -6 -58 -9 -80 -33 -247 -40 -886 -11 -933 3 -6 2 -13 -4 -17 -6
-4 -8 -10 -5 -15 3 -5 8 -26 10 -47 9 -72 15 -118 21 -148 3 -16 7 -45 8 -63
2 -18 6 -35 10 -39 3 -3 6 -17 6 -30 0 -50 72 -312 125 -453 91 -242 247 -509
392 -670 97 -108 123 -134 123 -123 0 7 -17 52 -39 100 -62 142 -101 244 -155
408 -25 75 -59 184 -62 200 -1 6 -12 48 -24 95 -23 88 -27 105 -35 143 -2 12
-9 42 -15 67 -6 25 -12 61 -14 80 -3 19 -5 35 -6 35 -2 0 -8 35 -14 80 -3 22
-8 54 -11 70 -14 80 -22 179 -30 348 -3 77 -6 142 -7 145 0 4 0 9 1 12 1 3 3
67 6 144 2 76 7 146 9 155 3 9 8 41 11 71 7 79 13 118 26 175 6 28 13 59 14
70 2 11 11 45 19 75 23 78 25 88 30 109 3 11 9 28 14 38 6 10 10 22 10 26 0 9
17 56 38 104 8 17 14 35 14 40 0 11 92 190 123 240 13 21 26 46 30 56 3 9 11
17 17 17 5 0 10 5 10 11 0 18 139 188 211 259 116 112 291 250 318 250 6 0 11
4 11 9 0 4 28 23 63 40 34 18 69 37 77 42 21 13 175 80 190 83 3 1 10 4 16 8
48 31 476 183 539 192 11 2 29 6 40 9 72 22 353 31 435 14 19 -4 49 -9 65 -12
53 -10 169 -46 200 -63 17 -9 32 -15 35 -14 5 2 78 -22 160 -53 61 -23 75 -28
83 -30 4 -2 8 -3 10 -5 1 -1 9 -3 17 -5 8 -2 60 -20 115 -40 173 -62 467 -158
495 -160 8 -1 22 -4 30 -8 25 -9 86 -27 109 -32 13 -2 31 -7 41 -10 10 -3 27
-8 37 -10 10 -2 59 -13 108 -25 50 -12 106 -23 125 -26 19 -3 42 -8 50 -11 8
-3 29 -7 45 -9 17 -3 41 -7 55 -10 14 -4 43 -8 65 -10 50 -6 90 -12 90 -14 0
-1 12 -3 28 -4 15 0 27 -5 28 -9 1 -17 -77 -98 -132 -137 -74 -52 -173 -97
-319 -145 -216 -70 -320 -136 -369 -234 -20 -39 -21 -55 -3 -57 4 0 21 -3 37
-7 59 -14 81 -17 179 -23 78 -5 108 -11 135 -28 20 -12 57 -33 84 -46 26 -14
47 -28 47 -32 0 -5 4 -8 9 -8 10 0 257 -163 356 -234 28 -19 59 -41 69 -48 10
-7 31 -22 45 -34 14 -11 56 -41 93 -67 36 -26 73 -54 82 -62 8 -8 18 -15 21
-15 13 0 108 -83 197 -171 l86 -85 -16 -27 c-19 -32 -30 -31 -118 8 -30 13
-58 25 -62 26 -4 2 -41 19 -82 39 -41 21 -97 48 -125 60 -27 12 -93 43 -145
67 -52 25 -120 57 -150 70 -30 14 -98 46 -150 70 -105 50 -131 60 -144 61 -5
0 -12 4 -15 9 -13 20 -180 84 -203 78 -34 -9 -73 -95 -84 -185 -3 -27 -12 -93
-19 -131 -2 -13 -6 -46 -10 -72 -7 -59 -34 -169 -44 -180 -8 -8 -17 -1 -111
83 -30 27 -64 57 -76 67 -43 37 -169 149 -208 185 -22 21 -42 35 -44 33 -5 -5
13 -100 35 -185 8 -30 16 -66 19 -80 2 -14 7 -32 11 -40 3 -8 7 -22 9 -30 3
-15 16 -45 40 -93 8 -16 14 -33 14 -38 0 -6 18 -38 41 -72 100 -151 160 -307
193 -507 25 -145 30 -204 41 -455 15 -342 26 -435 73 -635 25 -104 -36 -195
-144 -215 -16 -2 -40 -7 -54 -10 -13 -3 -56 -7 -95 -10 -39 -3 -111 -14 -160
-24 -185 -38 -256 -11 -349 134 -52 81 -84 158 -157 377 -38 113 -77 223 -86
245 -9 21 -17 40 -18 43 0 3 -9 21 -20 40 -10 19 -20 41 -21 48 -4 19 -63 123
-97 167 -35 46 -146 155 -238 235 -93 80 -214 206 -270 280 -42 55 -108 175
-140 255 -31 77 -38 229 -15 330 21 94 101 252 182 361 24 32 51 69 61 82 9
13 24 32 33 42 9 10 25 31 36 45 10 15 24 32 29 39 6 6 23 28 39 49 25 33 26
37 10 37 -21 0 -141 -27 -164 -37 -8 -3 -19 -7 -25 -8 -30 -7 -108 -51 -167
-95 -187 -138 -289 -380 -282 -670 1 -47 3 -85 4 -85 0 0 3 -22 5 -48 7 -86
61 -282 106 -383 12 -27 22 -52 21 -56 -1 -5 1 -8 6 -8 4 0 16 -20 27 -45 11
-25 23 -45 28 -45 4 0 7 -5 7 -11 0 -12 95 -141 138 -187 38 -40 118 -202 156
-312 39 -116 87 -333 101 -460 1 -14 5 -36 8 -50 4 -14 9 -42 12 -62 18 -135
82 -352 136 -468 29 -61 114 -213 132 -235 4 -5 25 -33 45 -62 36 -49 80 -104
123 -155 92 -107 393 -414 479 -488 35 -30 72 -63 82 -72 10 -10 21 -18 26
-18 4 0 21 -12 37 -28 17 -15 46 -40 65 -55 232 -188 410 -383 492 -543 31
-61 89 -205 87 -219 0 -3 2 -18 5 -33 6 -28 15 -87 20 -135 2 -15 -2 -28 -8
-28 -11 -1 -14 -1 -46 6 -8 2 -60 13 -115 25 -55 11 -107 22 -115 24 -8 2 -49
11 -91 20 -42 9 -83 18 -90 21 -8 2 -25 6 -39 9 -74 13 -631 160 -700 186 -14
5 -72 23 -130 40 -58 17 -114 35 -125 40 -11 5 -60 22 -110 38 -49 17 -121 42
-160 57 -38 14 -90 33 -115 42 -25 8 -49 19 -55 23 -5 4 -28 13 -50 20 -22 7
-44 16 -50 20 -5 4 -37 17 -70 30 -33 13 -76 31 -95 40 -259 125 -421 207
-493 249 -49 28 -91 51 -93 51 -3 0 -17 9 -32 19 -15 10 -74 49 -132 87 -104
67 -273 187 -298 211 -8 8 -30 26 -50 41 -37 27 -65 51 -157 132 -90 80 -289
285 -369 381 -43 52 -89 106 -102 121 -13 15 -24 32 -24 37 0 5 -3 11 -8 13
-20 8 -296 412 -324 474 -6 13 -14 24 -18 24 -4 0 -10 8 -13 18 -4 9 -17 35
-31 57 -14 22 -36 58 -48 80 -12 22 -27 48 -33 57 -5 9 -39 67 -75 129 -94
162 -92 157 -140 239 -25 41 -48 77 -52 78 -5 2 -8 8 -8 14 0 32 -294 462
-415 607 -246 297 -558 571 -847 746 -185 112 -383 218 -530 284 -27 11 -69
30 -94 42 -73 33 -401 159 -449 173 -5 2 -17 6 -25 9 -26 10 -95 30 -95 28 0
-1 -18 5 -40 15 -22 9 -42 16 -45 16 -12 -2 -56 12 -67 21 -7 5 -13 7 -13 4 0
-4 -19 1 -42 9 -24 8 -54 17 -68 19 -42 6 -237 47 -300 62 -14 3 -34 8 -45 10
-20 3 -34 7 -269 63 -71 18 -137 33 -145 35 -9 2 -63 15 -121 30 -58 15 -114
29 -124 31 -10 2 -33 8 -50 13 -17 6 -42 12 -56 15 -14 3 -52 12 -85 21 -33 9
-67 18 -75 20 -8 2 -96 23 -195 48 -99 25 -191 48 -205 50 -14 3 -54 13 -90
22 -74 19 -442 103 -481 109 -14 3 -72 14 -130 25 -121 23 -150 28 -204 36
-22 4 -47 8 -55 10 -8 3 -35 7 -60 10 -25 3 -56 8 -70 10 -52 9 -170 25 -178
24 -4 -1 -9 0 -12 1 -3 1 -21 4 -40 6 -19 1 -62 6 -95 10 -54 6 -98 8 -117 5
-13 -2 197 -348 232 -381 3 -3 32 -41 64 -85 33 -44 62 -82 66 -85 3 -3 19
-23 35 -45 17 -22 32 -42 35 -45 3 -3 66 -79 140 -170 74 -91 137 -167 140
-170 3 -3 36 -43 74 -90 37 -47 73 -92 80 -100 12 -16 93 -124 111 -149 17
-25 168 -171 176 -171 4 0 14 -6 21 -13 38 -38 265 -159 383 -205 28 -10 59
-22 70 -27 11 -4 25 -9 30 -11 6 -1 48 -16 95 -34 108 -39 114 -41 117 -41 6
1 182 -63 253 -91 81 -33 122 -52 305 -139 184 -87 240 -113 245 -114 21 -4
521 -259 690 -352 36 -20 90 -49 120 -66 30 -16 60 -33 65 -37 11 -9 49 -30
145 -82 382 -207 699 -453 952 -739 104 -117 118 -134 161 -189 23 -30 52 -66
65 -80 12 -14 22 -28 22 -32 0 -3 6 -13 13 -20 7 -7 28 -35 47 -63 19 -27 40
-56 47 -63 7 -7 20 -26 30 -42 9 -17 21 -30 25 -30 4 0 8 -4 8 -10 0 -10 60
-96 207 -294 106 -144 300 -342 404 -413 93 -64 208 -122 314 -158 44 -15 85
-28 90 -29 6 -1 15 -4 20 -7 6 -3 91 -32 190 -63 99 -32 187 -60 195 -63 8 -4
17 -7 20 -7 8 -2 93 -28 110 -34 8 -3 18 -6 23 -7 4 -2 10 -4 15 -5 4 -1 11
-2 16 -1 4 1 13 -2 20 -7 6 -6 27 -13 46 -17 19 -4 40 -11 45 -15 6 -4 17 -8
25 -8 8 -1 92 -24 185 -52 94 -28 177 -53 185 -55 20 -5 193 -53 255 -71 28
-8 57 -17 65 -19 8 -2 33 -8 55 -13 22 -6 67 -18 100 -27 228 -61 292 -78 310
-81 11 -2 81 -20 155 -39 74 -20 142 -38 150 -40 8 -2 98 -24 199 -49 101 -25
192 -46 202 -46 11 0 19 -5 19 -11 0 -5 4 -8 8 -5 4 3 24 1 43 -4 119 -30 166
-42 179 -45 36 -8 156 -36 295 -70 83 -21 158 -39 168 -41 26 -6 48 -11 97
-23 25 -7 54 -14 65 -16 49 -12 68 -16 200 -49 77 -19 156 -37 175 -40 19 -3
49 -8 65 -11 66 -13 82 -15 135 -20 121 -12 137 -14 185 -20 28 -3 61 -8 75
-11 14 -3 39 -7 55 -9 17 -3 41 -7 55 -11 14 -3 38 -8 54 -10 16 -3 40 -10 53
-15 35 -13 96 -11 115 4 38 29 78 131 85 217 2 25 4 50 5 55 0 10 -8 68 -16
110 -21 108 -160 332 -276 445 -8 8 -34 40 -57 70 -135 178 -247 303 -646 724
-130 137 -279 310 -367 426 -14 18 -29 38 -35 45 -5 6 -14 18 -20 27 -5 8 -33
49 -62 90 -134 194 -270 500 -297 668 -2 14 -7 36 -10 50 -7 26 -13 75 -22
178 l-5 63 33 13 c18 8 47 17 65 20 30 7 33 5 75 -64 49 -81 105 -187 130
-245 113 -269 176 -382 254 -461 35 -34 107 -84 128 -88 6 -2 29 -8 51 -14 54
-15 166 -12 233 5 50 13 56 13 99 -8 60 -29 184 -32 262 -6 70 24 151 107 153
157 0 3 4 10 8 15 5 6 11 23 14 38 2 15 7 31 10 35 17 29 23 282 10 467 -12
159 -6 1025 6 1025 3 0 5 42 6 93 1 50 4 173 8 272 3 99 9 261 12 360 3 99 6
181 8 182 5 5 96 -26 194 -67 100 -41 154 -67 372 -184 106 -57 279 -143 380
-189 61 -28 205 -73 260 -81 19 -3 46 -8 60 -11 35 -7 159 -10 165 -3 3 3 -16
23 -41 44 -102 85 -204 176 -204 182 0 4 -13 21 -28 38 -15 17 -55 65 -88 106
-35 43 -103 106 -155 147 -99 75 -158 123 -195 156 -13 11 -38 32 -56 47 -18
14 -87 70 -153 123 -66 53 -129 104 -140 113 -11 10 -40 33 -65 52 -25 19 -56
45 -70 57 -14 13 -28 23 -32 23 -4 0 -15 8 -25 19 -10 10 -37 32 -61 49 l-43
31 43 11 c75 20 163 52 170 64 4 6 8 7 8 3 0 -9 75 31 135 73 34 24 92 82 123
125 16 22 52 115 59 152 12 71 6 222 -12 280 -7 23 -12 24 -75 9 -14 -3 -38
-9 -55 -12 -16 -4 -104 -8 -195 -10 -145 -3 -219 3 -310 22 -14 3 -35 7 -47 9
-79 12 -435 138 -613 217 -87 39 -106 47 -235 96 -211 81 -348 121 -497 147
-16 3 -43 8 -60 11 -18 3 -46 8 -63 11 -53 9 -378 10 -445 1z m2041 -1785 c13
-16 12 -17 -3 -4 -10 7 -18 15 -18 17 0 8 8 3 21 -13z"/>
<path d="M1490 6295 c0 -9 239 -362 297 -438 23 -31 43 -61 43 -65 0 -4 9 -15
20 -25 11 -9 20 -24 20 -32 0 -8 4 -15 8 -15 4 0 35 -37 67 -82 33 -45 65 -86
70 -92 6 -6 48 -58 94 -115 202 -250 400 -441 609 -589 39 -29 77 -52 82 -52
6 0 10 -4 10 -9 0 -5 8 -11 18 -14 9 -3 40 -20 67 -36 28 -17 64 -37 80 -44
65 -31 191 -89 215 -99 14 -5 39 -16 55 -23 29 -13 70 -27 70 -25 0 0 34 -13
75 -30 41 -17 77 -31 80 -32 3 0 10 -2 15 -4 56 -21 312 -110 355 -124 30 -10
93 -33 140 -50 47 -17 103 -38 125 -45 35 -11 65 -22 140 -51 11 -4 22 -8 25
-9 3 -1 19 -7 35 -14 17 -6 55 -21 85 -32 30 -12 64 -25 75 -30 11 -4 94 -38
185 -75 156 -63 212 -86 288 -121 41 -20 48 -13 28 29 -37 82 -77 173 -76 176
0 1 -7 18 -15 38 -8 20 -15 38 -15 41 0 2 -8 23 -19 46 -10 23 -33 80 -51 127
-189 497 -378 781 -636 960 -136 94 -645 342 -994 485 -265 108 -720 272 -720
259 0 -3 -9 0 -21 6 -11 6 -28 13 -37 15 -9 1 -60 15 -112 30 -95 27 -157 43
-195 49 -11 2 -47 11 -80 19 -33 9 -73 18 -90 21 -16 3 -41 8 -55 11 -39 9
-250 45 -300 51 -24 3 -48 8 -52 10 -4 3 -8 2 -8 -1z"/>
</g>
</svg>
