<svg id="b2577d8c-1d90-472d-8704-6e07bf94ddc4" data-name="ee2d0d6a-f327-4862-90c9-82b3fae86934" xmlns="http://www.w3.org/2000/svg" viewBox="0 0 300.24 171.41"><defs><style>.e4ee992c-b74d-461d-aa89-95b61926e7e0{fill:#0943ea;}</style></defs><path class="e4ee992c-b74d-461d-aa89-95b61926e7e0" d="M262.12,60.61c-11.51-9.41-17.3-14-17.47-13.9S255.94,56.89,279,76.5c-7.81.5-14.5-3.2-21.62-7-2.13-1.12-4.29-2.33-6.52-3.43-2.88-2.06-5.79-4.23-8.67-6.3,4.43,2.1,8.85,4.1,13.28,6.19,5,2.36,9.91,4.65,14.9,6.91l1.17-1.52a53.8,53.8,0,0,1-4.94-5A41.28,41.28,0,0,1,262.12,60.61Z" transform="translate(21.2 -16.17)"/><path class="e4ee992c-b74d-461d-aa89-95b61926e7e0" d="M257.74,28.42h0a16.81,16.81,0,0,1,.52,7.08l-2-.12-1.92-.25c-14.3-2-26.86-6.52-39-10.93l-3.73-1.35a29.58,29.58,0,0,0-18-.59,90,90,0,0,0-13.79,5.07,45.69,45.69,0,0,0-26.7,27.75c-8.07,22.3-1.67,49.35,7,67.61-11-10.36-21.5-29.8-17.1-66,1.6-13.89,9.89-24.5,25.45-32.38a77.73,77.73,0,0,1,17-6.47c17.27-4.29,29,.64,40.39,5.43C235.86,27.46,245.41,31.48,257.74,28.42Z" transform="translate(21.2 -16.17)"/><path class="e4ee992c-b74d-461d-aa89-95b61926e7e0" d="M256.27,35.38l2,.12c-.76,5.24-4.65,8.68-11.86,10.77l-1.72.53L246,48c4.5,4,17.17,13.56,21.6,16.89,2.18,2.14,5.21,6.44,6.1,7.15l-7.12-5.45c-5.59-4.28-16.9-12.5-23.18-15.78l-.24-.15-.22,0c-2.47,0-5.46,0-8-1.1,1.8-4.37,5.51-5.6,9.81-7,3.62-1.21,7.35-2.34,10.34-5.66Z" transform="translate(21.2 -16.17)"/><path class="e4ee992c-b74d-461d-aa89-95b61926e7e0" d="M251.29,65.15l-.39.92A51.84,51.84,0,0,0,244,63.34l-1.23-.41,0,1.33-.41,12.06c-.38,10.09-.69,19.64-.83,29.46,0,1.34.16,2.74.23,4.27.52,7.91,1.31,17.71-5.39,19.37a12.77,12.77,0,0,1-5.26,0,1.73,1.73,0,0,1-.49-.29,2.4,2.4,0,0,0-1.67-.52l-.58.15c-10,2.48-13-4.39-16.47-12.4a41.87,41.87,0,0,0-4.67-8.84l-.46-.61-3,1v.82c.79,17.32,12.66,29.83,24.11,41.93a170.27,170.27,0,0,1,13,14.79l0,.1,0,.1c7.7,7.77,9.92,14.64,6.75,20.58a2.35,2.35,0,0,1-1.41,1.38,4.22,4.22,0,0,1-2.32-.25A55.38,55.38,0,0,0,234,185.66a60.19,60.19,0,0,1-8.56-1.28l-11.08-2.71C186.09,174.88,157,167.89,129,158.23c-10.52-3.36-16.21-11.33-22.6-20.46C98.77,126.89,90,114.53,70.63,104.41a329,329,0,0,0-30.7-15.77,87.14,87.14,0,0,0-14.35-5.92C17.8,80,9.68,77.18,4.16,71.13,1,66.76-2.54,62.39-6,58.31-11.64,51.46-17.35,44.63-21.2,37c16.93,1.36,34.29,5.71,51.11,10,9.8,2.52,19.91,5.06,29.87,7,47.15,13.54,59.41,34.71,72.37,57.05,15.67,27,31.77,55,110.73,70.92l1.31.3-.12-1.31c-1-11.28-9-17.87-16.71-24.19A73.09,73.09,0,0,1,216.87,147l0-.1c-13.66-13.1-15-21.93-16.51-31.25-.89-5.65-1.82-11.5-5.69-18.37l0-.09-.13-.08c-7.4-7.43-11-20.24-8.31-29.77a16.71,16.71,0,0,1,12.68-12.42c1-.24,2-.38,3-.53l-1.58,1.94c-7.39,9.25-13.83,17.34-4.61,29.58a49.29,49.29,0,0,0,6.46,6.54c3.56,3.13,6.86,6,8.43,10.27l0,.1,0,.1c1.14,1.67,2.23,4.8,3.24,8,2.34,7.36,5,15.75,11.45,14.16l.19,0c.29-.08.56-.25.75-.29,1.29-.22,2.48-.41,3.79-.53a32,32,0,0,0,4.39-.58,5,5,0,0,0,3.47-2.2,4.18,4.18,0,0,0,.23-3.66c-1.33-4.92-1.49-10.14-1.72-15.23-.33-8-.73-16.21-5.3-23.42-2.83-3.93-3.91-9.12-5-14.63l11.09,9.82.49-1.36a26.84,26.84,0,0,0,.93-5c.44-3.2,1-7.88,2.59-8.27.58-.14,1.4.27,2.47,1.25h0l0,.09A51.32,51.32,0,0,0,251.29,65.15Z" transform="translate(21.2 -16.17)"/><path class="e4ee992c-b74d-461d-aa89-95b61926e7e0" d="M81.11,117.16c13.52,8.39,16,23.24,22.49,37.08C52.27,131.73,48.54,143.68,16,94.37,38,97.15,61,106.38,81.11,117.16Z" transform="translate(21.2 -16.17)"/><path class="e4ee992c-b74d-461d-aa89-95b61926e7e0" d="M257.68,59.34l8.74,7" transform="translate(21.2 -16.17)"/></svg>