<svg id="a48fd178-b4a8-41fe-81a2-2a13639e9ce0" data-name="ee2d0d6a-f327-4862-90c9-82b3fae86934" xmlns="http://www.w3.org/2000/svg" viewBox="0 0 281.9 302.9"><defs><style>.facd333e-9172-444c-9d13-0a107eee00bf{fill:#fffcfa;}</style></defs><path class="facd333e-9172-444c-9d13-0a107eee00bf" d="M18.1,225.7a25.65,25.65,0,0,0,18.1,43.8,24.55,24.55,0,0,0,8.5-1.5v-8.3a17,17,0,0,1-8.5,2.1,18,18,0,1,1-.8-36l-7.8-6.3A25.65,25.65,0,0,0,18.1,225.7Z"/><path class="facd333e-9172-444c-9d13-0a107eee00bf" d="M27.7,219.5l7.8,6.3h.8a16.84,16.84,0,0,1,8.5,2.2v-8.4a27,27,0,0,0-17.1-.1Z"/><path class="facd333e-9172-444c-9d13-0a107eee00bf" d="M47,269h9l4.4-7a43.53,43.53,0,0,0-2.7-10Z"/><path class="facd333e-9172-444c-9d13-0a107eee00bf" d="M57.8,252a43.53,43.53,0,0,1,2.7,10l3-4.8H80.6V269h7.7V218.7H78.9Zm22.7-2.4H68.3l12.3-19.4Z"/><polygon class="facd333e-9172-444c-9d13-0a107eee00bf" points="104.4 218.7 96.8 218.7 96.8 269 122.4 269 122.4 261.4 104.4 261.4 104.4 218.7"/><path class="facd333e-9172-444c-9d13-0a107eee00bf" d="M128.6,269h7.6V236.1a26,26,0,0,1-7.6-5.1Z"/><path class="facd333e-9172-444c-9d13-0a107eee00bf" d="M128.6,231a24.19,24.19,0,0,0,7.6,5.1V218.7h-7.6Z"/><path class="facd333e-9172-444c-9d13-0a107eee00bf" d="M157.5,240.5s-7.2-.2-8.3-.3v29.1h7.6V248.1h.7c-.3-.7-.5-1.4-.8-2C155.4,244.1,159.2,241.9,157.5,240.5Z"/><path class="facd333e-9172-444c-9d13-0a107eee00bf" d="M173.5,247a14.8,14.8,0,0,0,6.4-5.2,14.52,14.52,0,0,0-4-20.2,15.11,15.11,0,0,0-8-2.5H149.3v7.6c5.4,0,5,.1,7.6,0h10.9a6.9,6.9,0,0,1,0,13.8H157.6c-.3.1-2.1,3.6-.7,5.6.3.7.5,1.4.8,2h7.9l11,21.2h8.6Z"/><polygon class="facd333e-9172-444c-9d13-0a107eee00bf" points="189.4 269.4 215.1 269.4 215.1 261.7 197 261.7 197 248 210.9 248 210.9 240.3 197 240.3 197 226.7 215.1 226.7 215.1 219.1 189.4 219.1 189.4 269.4"/><polygon class="facd333e-9172-444c-9d13-0a107eee00bf" points="256.1 219.1 247.3 219.1 236.6 237.1 226 219.1 217.1 219.1 232.2 244.6 217.6 269.4 226.5 269.4 236.6 252.2 246.8 269.4 255.6 269.4 241.1 244.6 256.1 219.1"/><polygon class="facd333e-9172-444c-9d13-0a107eee00bf" points="31 279.7 37.6 279.7 37.6 302.6 39.9 302.6 39.9 279.7 46.5 279.7 46.5 277.3 31 277.3 31 279.7"/><path class="facd333e-9172-444c-9d13-0a107eee00bf" d="M81.7,294.2a6.4,6.4,0,0,1-12.8,0V277.4H66.6v16.8a8.7,8.7,0,0,0,17.4,0h0v-6.7a9.13,9.13,0,0,1-2.3-1.5v8.2Z"/><path class="facd333e-9172-444c-9d13-0a107eee00bf" d="M81.7,286a11.35,11.35,0,0,0,2.3,1.5V277.4H81.7Z"/><polygon class="facd333e-9172-444c-9d13-0a107eee00bf" points="119.8 298.4 107.3 277.3 104.8 277.3 104.8 302.6 107.1 302.6 107.1 281.5 119.7 302.6 122.2 302.6 122.2 277.3 119.8 277.3 119.8 298.4"/><rect class="facd333e-9172-444c-9d13-0a107eee00bf" x="142.4" y="277.2" width="2.3" height="25.4"/><path class="facd333e-9172-444c-9d13-0a107eee00bf" d="M172.6,279.4a6.34,6.34,0,0,1,4.7,2l1.7-1.6a8.69,8.69,0,0,0-6.3-2.7,9.66,9.66,0,0,0-5.5,1.2c.4.7.8,1.3,1.2,2A7.43,7.43,0,0,1,172.6,279.4Z"/><path class="facd333e-9172-444c-9d13-0a107eee00bf" d="M178.8,292.2a8.64,8.64,0,0,1-1.4-1.3,16.72,16.72,0,0,0-4.9-2.2c-4.1-1.2-6.1-2.8-6-5a4,4,0,0,1,2-3.5h0c-.4-.7-.8-1.3-1.2-2h-.1a6.3,6.3,0,0,0-3.1,5.4,4.89,4.89,0,0,0,1.4,3.8,12.51,12.51,0,0,0,6.4,3.5c4.1,1.2,6.1,2.9,6,5a4.43,4.43,0,0,1-1.7,3.1,6.71,6.71,0,0,1-4.5,1.4,9.54,9.54,0,0,1-3.3-.9,4.87,4.87,0,0,1-2.3-2.4l-2.2.8a7,7,0,0,0,3.2,3.6,10.18,10.18,0,0,0,4.5,1.3h.5a8.29,8.29,0,0,0,5.6-1.9,6.46,6.46,0,0,0,2.6-4.8,5.25,5.25,0,0,0-1.4-3.9Z"/><path class="facd333e-9172-444c-9d13-0a107eee00bf" d="M177.3,291a17.88,17.88,0,0,1,1.4,1.3A5.71,5.71,0,0,0,177.3,291Z"/><rect class="facd333e-9172-444c-9d13-0a107eee00bf" x="199.3" y="277.2" width="2.3" height="25.4"/><polygon class="facd333e-9172-444c-9d13-0a107eee00bf" points="234.9 279.7 234.9 277.3 222 277.3 222 302.6 234.9 302.6 234.9 300.3 224.3 300.3 224.3 291.1 232.7 291.1 232.7 288.8 224.3 288.8 224.3 279.7 234.9 279.7"/><path class="facd333e-9172-444c-9d13-0a107eee00bf" d="M269.3,91.1c-8.9-11.9-13.4-17.8-13.6-17.7s8.5,12.6,26.2,37.2c-7.7-1.4-13.3-6.6-19.3-12-1.8-1.6-3.6-3.3-5.5-4.9-2.3-2.7-4.6-5.5-6.9-8.2,3.8,3.1,7.6,6.1,11.4,9.2,4.3,3.5,8.5,6.9,12.8,10.3l1.5-1.2a52.76,52.76,0,0,1-3.6-6A41.18,41.18,0,0,1,269.3,91.1Z"/><path class="facd333e-9172-444c-9d13-0a107eee00bf" d="M272.8,58.8h0a16.68,16.68,0,0,1-1.2,7l-1.9-.6-1.8-.7c-13.4-5.4-24.5-12.8-35.2-20l-3.3-2.2a29.54,29.54,0,0,0-17.3-4.9A89.35,89.35,0,0,0,197.5,39a45.71,45.71,0,0,0-32.6,20.5c-13.2,19.7-13.5,47.5-9.5,67.3-8.2-12.7-13.7-34.1-.7-68.2,4.9-13.1,15.5-21.4,32.5-25.3a77.79,77.79,0,0,1,18-2.2c17.8,0,28,7.6,37.9,15C251.8,52.6,260.1,58.8,272.8,58.8Z"/><path class="facd333e-9172-444c-9d13-0a107eee00bf" d="M269.7,65.2l1.9.6c-2,4.9-6.6,7.3-14.1,7.6l-1.8.1,1,1.5c3.4,5,13.4,17.3,16.9,21.6,1.6,2.6,3.5,7.5,4.2,8.4l-5.6-7c-4.4-5.5-13.4-16.2-18.7-20.9l-.2-.2-.2-.1c-2.4-.6-5.3-1.3-7.5-3,2.8-3.8,6.7-4.1,11.2-4.4,3.8-.3,7.7-.5,11.4-3Z"/><path class="facd333e-9172-444c-9d13-0a107eee00bf" d="M257.7,92.9l-.6.8a50.47,50.47,0,0,0-6-4.3l-1.1-.7-.3,1.3-3.3,11.6c-2.8,9.7-5.4,18.9-7.9,28.4-.3,1.3-.5,2.7-.8,4.2-1.4,7.8-3,17.5-9.9,17.5a12.82,12.82,0,0,1-5.1-1.3c-.1-.1-.3-.2-.4-.4a2.37,2.37,0,0,0-1.5-.9h-.6c-10.3,0-11.6-7.4-13-16a41.72,41.72,0,0,0-2.4-9.7l-.3-.7-3.1.2-.2.8c-3.4,17,5.1,32,13.3,46.5a170.9,170.9,0,0,1,9.1,17.5v.2c5.6,9.4,6.1,16.6,1.6,21.6a2.33,2.33,0,0,1-1.7,1,4.19,4.19,0,0,1-2.2-.8,55.3,55.3,0,0,0-9.4-4,61.27,61.27,0,0,1-8-3.3l-10.1-5.3c-25.8-13.4-52.4-27.2-77.2-43.3-9.4-5.8-13-14.9-17-25.3-4.8-12.4-10.3-26.5-26.7-41a330,330,0,0,0-26-22.7,87.51,87.51,0,0,0-12.5-9.2c-6.9-4.5-14.1-9.2-18-16.4-2-5-4.4-10.1-6.8-14.9C5.8,16.3,1.9,8.3,0,0,16.1,5.4,31.9,13.8,47.2,22c8.9,4.8,18.1,9.7,27.3,14C117,60.5,123.8,84,131,108.8c8.7,30,17.6,61,90.4,95.5l1.2.6.2-1.3c1.7-11.2-4.4-19.5-10.4-27.5a73.41,73.41,0,0,1-7.8-12.1v-.1c-10.1-16-9.3-24.9-8.5-34.3.5-5.7,1-11.6-1.1-19.2v-.1l-.1-.1c-5.4-9-5.8-22.3-.9-30.9a16.7,16.7,0,0,1,15.3-9c1,0,2,.1,3,.2l-2,1.5c-9.4,7.2-17.6,13.5-11.6,27.6a48.42,48.42,0,0,0,4.7,7.9c2.7,3.9,5.2,7.5,5.7,12v.2c.7,1.9,1,5.2,1.2,8.6.5,7.7,1.1,16.5,7.7,16.5h.2c.3,0,.6-.1.8-.1,1.3.1,2.5.2,3.8.4a32.93,32.93,0,0,0,4.4.5,5,5,0,0,0,3.9-1.3,4.15,4.15,0,0,0,1.1-3.5c-.1-5.1,1-10.2,2-15.2,1.6-7.8,3.2-15.9.5-24-1.8-4.5-1.6-9.8-1.3-15.4l8.4,12.2.8-1.2a27.17,27.17,0,0,0,2.1-4.6c1.2-3,2.9-7.4,4.5-7.4q.9,0,2.1,1.8h0v.1A51.45,51.45,0,0,0,257.7,92.9Z"/><path class="facd333e-9172-444c-9d13-0a107eee00bf" d="M80,102.4c11.1,11.4,9.9,26.4,12.9,41.4C48.5,109.6,42,120.3,22.3,64.6,43,72.6,63.1,87.1,80,102.4Z"/><path class="facd333e-9172-444c-9d13-0a107eee00bf" d="M160.1,230.5c4.1,1.1,4.1,3.5,5.5,5.6-15.9-2.5-17.8-.4-26-7.8A100.64,100.64,0,0,1,160.1,230.5Z"/><path class="facd333e-9172-444c-9d13-0a107eee00bf" d="M142.7,224.2a49.16,49.16,0,0,0-3.6-5.4c5.7.7,9.6,0,12.6.5,5.6.9,8.2,1.7,13.7,6.3C158.3,225.9,145.2,228.7,142.7,224.2Z"/><path class="facd333e-9172-444c-9d13-0a107eee00bf" d="M265.3,88.8l6.8,8.9"/></svg>