<svg xmlns="http://www.w3.org/2000/svg" xmlns:xlink="http://www.w3.org/1999/xlink" viewBox="0 0 288 288">
  <defs>
    <path id="a" fill="rgba(0,0,0,0)" fill-opacity="0,0" d="M0 7000h10000V0H0Z" class="color000 svgShape"/>
  </defs>
  <svg xmlns="http://www.w3.org/2000/svg" viewBox="0 0 1333.333 933.333">
    <defs>
      <clipPath id="i" clipPathUnits="userSpaceOnUse">
        <path fill="rgba(0,0,0,0)" fill-opacity="0,0" d="M9602.83 3099.58v145.77l1047.17 440V0H9069.56v3025.34z" class="color000 svgShape"/>
      </clipPath>
      <clipPath id="b" clipPathUnits="userSpaceOnUse">
        <path fill="rgba(0,0,0,0)" fill-opacity="0,0" d="m2278.61 1606.84-261.63 120.77c37.19 81.64 59.4 171.43 63.04 265.96l287.43-9.34c-4.8-132.22-35.19-259.91-88.84-377.39zm-202.85-291.54c-6.57-6.57-13.24-13.01-19.95-19.38l-196.91 210.14c63.75 60.56 116.34 132.69 154.26 213.12l261.6-120.76c-48.62-103.88-115.48-199.6-199-283.12zm-208.48-160.08-137.47 253.38c44.05 25.99 85.07 56.54 122.39 91.08l196.83-210.06c-55.97-52.06-116.92-97.01-181.75-134.4zm494.37-950.021H377.895l497.25 916.531c32.582-17.98 66.043-34.17 100.32-48.43l-35.078-85.409c-7.961 2.519-16.422 3.898-25.215 3.898-45.996 0-83.281-37.277-83.281-83.277s37.285-83.282 83.281-83.282c45.988 0 83.281 37.282 83.281 83.282 0 33.929-20.324 63.07-49.433 76.047l35.019 85.271c109.491-44.37 226.791-69.59 347.771-73.959l-2.85-87.461c-45.09-1.031-81.35-37.828-81.35-83.18 0-46 37.29-83.281 83.28-83.281s83.28 37.281 83.28 83.281c0 43.52-33.4 79.2-75.96 82.911l2.84 87.39c9.56-.261 19.13-.422 28.72-.422 116.48 0 229.99 19.341 336.9 56.391l29.97-85.039c-28.33-13.289-47.99-41.992-47.99-75.352 0-45.988 37.28-83.277 83.28-83.277 45.99 0 83.28 37.289 83.28 83.277 0 45.993-37.29 83.282-83.28 83.282-9.35 0-18.31-1.61-26.7-4.45l-29.81 84.569c51.37 18.32 101.14 40.83 148.97 67.22zM663.777 1315.3c-6.57 6.57-13.011 13.24-19.379 19.95l210.145 196.91c45.613-48.02 97.805-89.7 155.187-123.56l-137.464-253.38c-75.293 43.41-145.387 96.98-208.489 160.08zm-229.761 356.53 270.277 99.51c32.719-86.82 81.941-165.58 143.859-232.48l-210.047-196.83c-90.136 96.92-158.957 208.75-204.089 329.8zm-62.668 349.46c0 9.29.156 18.56.41 27.81l287.519-9.34c-.156-6.16-.468-12.28-.468-18.47 0-84.67 14.941-165.91 42.226-241.29l-270.25-99.5c-39.047 107.81-59.437 222.72-59.437 340.79zm89.582 414.45 261.629-120.77c-37.192-81.64-59.399-171.43-63.047-265.97l-287.418 9.35c4.793 132.22 35.191 259.92 88.836 377.39zm202.847 291.54c6.575 6.57 13.235 13.01 19.953 19.38l196.915-210.14c-63.754-60.55-116.348-132.69-154.266-213.13l-261.598 120.77c48.617 103.88 115.485 199.6 198.996 283.12zm369.573 234.59 95.74-271.64c-90.5-32.66-172.473-83.21-241.75-147.33l-196.832 210.06c100.394 93.36 216.765 163.92 342.842 208.91zm336.42 57.84c9.29 0 18.56-.15 27.81-.4l-9.35-287.53c-6.15.16-12.27.47-18.46.47-81.2 0-159.17-13.87-231.91-39.05l-95.76 271.69c103.99 36.01 214.37 54.82 327.67 54.82zm375.18-72.65-109.45-266.53c-74.03 29.95-154.16 47.78-238.01 51.01l9.34 287.42c117.62-4.26 231.66-28.77 338.12-71.9zm330.81-219.78c6.57-6.57 13.01-13.23 19.38-19.96L1885 2510.42c-67.45 71.01-149.27 128.24-240.9 166.71l109.43 266.45c119.01-49.52 228.33-122.4 322.23-216.3zm229.77-356.53-270.29-99.51c-32.71 86.82-81.94 165.58-143.86 232.48l210.06 196.83c90.13-96.92 158.95-208.75 204.09-329.8zm-695.08-1018.4c35.87 12.94 70.38 28.72 103.31 47.02l137.39-253.23c-46.55-25.69-94.98-47.6-144.96-65.44zm-259.15-41.55c6.16-.16 12.28-.47 18.47-.47 81.2 0 159.17 13.86 231.91 39.04l95.76-271.67c-103.99-36.02-214.38-54.83-327.67-54.83-9.29 0-18.56.15-27.81.41zm-247.26 51.25c74.03-29.95 154.16-47.78 238.01-51.01l-9.34-287.43c-117.62 4.27-231.67 28.79-338.12 71.92zm-8.61 3.39L986.016 1099c-33.356 13.88-65.922 29.64-97.625 47.14l137.389 253.23c22.51-12.5 45.73-23.88 69.65-33.93zm326.89 636.68c1.48 4.06 2.53 8.3 3.04 12.73l640.8-20.83c-3.59-92.61-25.34-180.6-61.78-260.59zm4.37-34.81-11.54 21.27c1.19 1.65 2.31 3.36 3.32 5.14l582.1-268.72c-37.17-78.8-88.7-149.48-151.16-208.82zm17.44-32.14 398.59-425.37c-36.46-33.74-76.52-63.59-119.53-89zm-51.46 35.06c3.07 1.38 5.99 3 8.74 4.88l305.74-563.54c-32.31-17.95-66.14-33.44-101.32-46.14zm-22.9-646.02c-6.04 0-12.01.31-18.02.46l20.83 640.77c3.91.19 7.7.78 11.36 1.74l213.13-604.71c-71.3-24.67-147.72-38.26-227.3-38.26zm-16.92 643.71c3.37-1.07 6.88-1.81 10.48-2.23l-20.83-640.79c-82.15 3.19-160.65 20.65-233.18 49.98zm-14.72 7.19c1.97-1.35 4.04-2.55 6.18-3.65l-243.6-593.18c-23.46 9.86-46.24 21.02-68.32 33.29zm-31.57-19.38-290.21-534.93c-56.077 33.14-107.08 73.9-151.686 120.85zm12.49 41.96c1.5-3.22 3.28-6.26 5.34-9.11l-3.83-7.07-462.283-433.17c-60.66 65.56-108.886 142.73-140.957 227.8zm-1.83 42.76c-1.48-4.05-2.54-8.3-3.05-12.73l-640.787 20.83c3.586 92.62 25.344 180.61 61.773 260.6zm11.07 18.35c-2.75-3.03-5.18-6.35-7.22-9.94l-582.093 268.72c37.16 78.8 88.695 149.48 151.152 208.82zm18.58 13.55c-4.26-1.92-8.24-4.34-11.85-7.21l-438.2 467.64c67.891 62.82 148.21 112.35 236.89 144.36zm20.08 4.79c-3.9-.2-7.69-.78-11.34-1.73l-213.14 604.7c71.29 24.67 147.72 38.26 227.3 38.26 6.04 0 12.01-.3 18.01-.46zm19.74-2.47c-3.37 1.06-6.88 1.8-10.48 2.21l20.83 640.8c82.15-3.18 160.66-20.65 233.18-49.98zm20.59-11.9c-3.62 3.28-7.66 6.1-12.05 8.34l243.6 593.19c89.78-37.71 169.94-93.79 236.05-163.37zm6.34-6.73 467.64 438.2c60.66-65.56 108.89-142.73 140.96-227.8l-601.73-221.55c-1.86 4-4.16 7.74-6.87 11.15zm-740.472-16.74 640.772-20.82c.21-4.18.86-8.23 1.93-12.11L714.063 1784.8c-26.727 73.88-41.372 153.5-41.372 236.49 0 6.04.301 12.01.457 18.01zm1393.242-36.02-640.77 20.82c-.21 4.18-.86 8.23-1.93 12.11l601.79 221.57c26.73-73.88 41.37-153.5 41.37-236.49 0-6.04-.31-12.01-.46-18.01zm301.8 18.01c0-9.29-.15-18.56-.41-27.81l-287.52 9.34c.16 6.16.47 12.28.47 18.47 0 84.67-14.94 165.91-42.22 241.28l270.24 99.51c39.05-107.8 59.44-222.72 59.44-340.79zm207.85 44.4c-43.63 0-79.37-33.57-82.92-76.29l-97.59 3.18c.26 9.55.42 19.11.42 28.71 0 121.39-20.97 239.55-61.14 350.38l81.53 30.02c12.8-29.54 42.19-50.22 76.42-50.22 46 0 83.28 37.29 83.28 83.29 0 45.99-37.28 83.28-83.28 83.28-45.99 0-83.28-37.29-83.28-83.28 0-8.49 1.29-16.67 3.65-24.39l-81.54-30.02c-46.41 124.5-117.19 239.52-209.9 339.18l63.85 59.83c14.95-14.28 35.16-23.1 57.46-23.1 46 0 83.28 37.28 83.28 83.28s-37.28 83.28-83.28 83.28c-45.99 0-83.28-37.28-83.28-83.28 0-20.36 7.33-38.99 19.46-53.46l-63.78-59.78c-6.58 6.94-13.23 13.83-20.01 20.61-96.54 96.54-208.94 171.46-331.31 222.37l35.08 85.42c7.95-2.53 16.42-3.91 25.21-3.91 46 0 83.28 37.28 83.28 83.28 0 45.99-37.28 83.28-83.28 83.28s-83.28-37.29-83.28-83.28c0-33.93 20.32-63.07 49.43-76.05l-35.02-85.27c-109.49 44.37-226.79 69.59-347.77 73.96l3.8 116.86 2.64-.13c46 0 83.29 37.28 83.29 83.28 0 45.99-37.29 83.28-83.29 83.28-45.99 0-83.28-37.29-83.28-83.28 0-41.95 31.05-76.56 71.4-82.34l-3.81-117.33c-9.55.26-19.11.43-28.71.43-116.49 0-229.98-19.36-336.9-56.4l-33.608 95.34c30.288 12.47 51.628 42.24 51.628 77.02 0 45.99-37.29 83.28-83.285 83.28-45.988 0-83.281-37.29-83.281-83.28s37.293-83.28 83.281-83.28c7.958 0 15.618 1.18 22.903 3.26l33.612-95.35c-129.667-46.25-249.354-118.82-352.593-214.86l-60.961 65.07c13.614 14.82 21.993 34.53 21.993 56.24 0 46-37.289 83.28-83.282 83.28-45.996 0-83.281-37.28-83.281-83.28 0-45.99 37.285-83.28 83.281-83.28 20.95 0 40.039 7.79 54.672 20.56l60.809-64.89c-6.945-6.57-13.824-13.22-20.61-20-85.871-85.87-154.605-184.3-204.582-291.11l-77.41 35.73c2.805 8.33 4.387 17.23 4.387 26.51 0 45.99-37.285 83.28-83.281 83.28-45.996 0-83.282-37.29-83.282-83.28 0-46 37.286-83.28 83.282-83.28 33.433 0 62.187 19.75 75.437 48.17l77.016-35.55c-55.188-120.81-86.453-252.15-91.363-388.13l-99.407 3.23c-1.238 44.92-37.953 80.97-83.164 80.97-45.996 0-83.281-37.29-83.281-83.28 0-46 37.285-83.29 83.281-83.29 43.653 0 79.395 33.61 82.93 76.35l99.297-3.23c-.258-9.55-.422-19.12-.422-28.71 0-121.39 20.977-239.55 61.141-350.38l-81.528-30.02c-12.801 29.53-42.183 50.21-76.422 50.21-45.996 0-83.281-37.28-83.281-83.28 0-45.99 37.285-83.28 83.281-83.28 45.996 0 83.282 37.29 83.282 83.28 0 8.49-1.289 16.68-3.649 24.39l81.539 30.02c46.406-124.5 117.184-239.52 209.899-339.18L554 1263.22c-14.945 14.28-35.156 23.1-57.461 23.1-45.996 0-83.281-37.29-83.281-83.28s37.285-83.28 83.281-83.28c45.988 0 83.281 37.29 83.281 83.28 0 20.36-7.332 38.99-19.465 53.46l63.79 59.77c6.57-6.93 13.218-13.81 20.003-20.6 65.024-65.02 137.258-120.19 214.868-164.87L356.84 205.199h-90.125v-26.457h-44.137v-52.551H2516.96v52.551h-44.13v26.457h-90.13L1880.53 1130.8c66.89 38.51 129.75 84.87 187.48 138.57l81.46-86.93c-17.47-15.27-28.56-37.66-28.56-62.68 0-46 37.29-83.29 83.28-83.29 46 0 83.28 37.29 83.28 83.29 0 45.99-37.28 83.28-83.28 83.28-17.63 0-33.96-5.52-47.42-14.87l-81.98 87.49c6.93 6.58 13.82 13.23 20.6 20.01 85.87 85.87 154.61 184.3 204.59 291.11l90.73-41.88c-1.65-6.53-2.61-13.32-2.61-20.36 0-46 37.29-83.28 83.28-83.28s83.28 37.28 83.28 83.28-37.29 83.28-83.28 83.28c-35.68 0-66.03-22.48-77.89-54.02l-89.66 41.4c55.18 120.81 86.45 252.14 91.36 388.13l97.69-3.17c1.2-44.95 37.93-81.03 83.16-81.03 46 0 83.29 37.29 83.29 83.28 0 46-37.29 83.28-83.29 83.28z" class="color000 svgShape"/>
      </clipPath>
      <clipPath id="d" clipPathUnits="userSpaceOnUse">
        <path fill="rgba(0,0,0,0)" fill-opacity="0,0" d="M4700 0v2880.7l190.91 53.51v187.29l318.18 115.94v321.07l345.46 205.13 172.72-44.6v-338.9l136.37-35.68v-160.53l118.18-26.76V2978.8l118.18-26.75V0Z" class="color000 svgShape"/>
      </clipPath>
      <clipPath id="n" clipPathUnits="userSpaceOnUse">
        <path fill="rgba(0,0,0,0)" fill-opacity="0,0" d="M3500 3916.55v187.36l-37.27 1.88v70.11l-214.32 52.91h-391.36l-409.99-63.49-149.09-74.07v-55.9l-37.28-2.82V3854.1l37.28 7.14v-58.32l-37.28-11.26V0H3500v3845.18l-37.27 6.37v65z" class="color000 svgShape"/>
      </clipPath>
      <clipPath id="f" clipPathUnits="userSpaceOnUse">
        <path fill="rgba(0,0,0,0)" fill-opacity="0,0" d="M8220 5233.9v63.62h-80v200.66h-31.72v50.46H7728v58.5h-184v-58.5h-32v83.95h-184v-83.95h-76.28v-50.46H7220v-200.66h-80v-63.62h-40V0h1160v5233.9z" class="color000 svgShape"/>
      </clipPath>
      <clipPath id="l" clipPathUnits="userSpaceOnUse">
        <path fill="rgba(0,0,0,0)" fill-opacity="0,0" d="M-1000.87 2640 300 2430V0h-1440v2363.17z" class="color000 svgShape"/>
      </clipPath>
      <clipPath id="h" clipPathUnits="userSpaceOnUse">
        <use xlink:href="#a" class="color000 svgShape"/>
      </clipPath>
      <clipPath id="k" clipPathUnits="userSpaceOnUse">
        <use xlink:href="#a" class="color000 svgShape"/>
      </clipPath>
      <linearGradient id="j" x1="0" x2="1" y1="0" y2="0" gradientTransform="matrix(0 -3685.35 3685.35 0 9859.78 3685.35)" gradientUnits="userSpaceOnUse" spreadMethod="pad">
        <stop class="stopColore3e2e2 svgShape" offset="0" stop-color="#f7da9a"/>
        <stop class="stopColor969696 svgShape" offset=".993" stop-color="#2a5fec"/>
        <stop class="stopColor969696 svgShape" offset="1" stop-color="#2a5fec"/>
      </linearGradient>
      <linearGradient id="c" x1="0" x2="1" y1="0" y2="0" gradientTransform="rotate(90 1078.0392 291.96895) scale(4491.83)" gradientUnits="userSpaceOnUse" spreadMethod="pad">
        <stop class="stopColor696969 svgShape" offset="0" stop-color="#0943ea"/>
        <stop class="stopColorc4c3c3 svgShape" offset=".993" stop-color="#b0c2ef"/>
        <stop class="stopColorc4c3c3 svgShape" offset="1" stop-color="#b0c2ef"/>
      </linearGradient>
      <linearGradient id="g" x1="0" x2="1" y1="0" y2="0" gradientTransform="matrix(0 5632.59 5632.59 0 7680 0)" gradientUnits="userSpaceOnUse" spreadMethod="pad">
        <stop class="stopColor696969 svgShape" offset="0" stop-color="#0943ea"/>
        <stop class="stopColorc4c3c3 svgShape" offset=".993" stop-color="#b0c2ef"/>
        <stop class="stopColorc4c3c3 svgShape" offset="1" stop-color="#b0c2ef"/>
      </linearGradient>
      <linearGradient id="m" x1="0" x2="1" y1="0" y2="0" gradientTransform="matrix(0 -2640 2640 0 -420 2640)" gradientUnits="userSpaceOnUse" spreadMethod="pad">
        <stop class="stopColore3e2e2 svgShape" offset="0" stop-color="#f7da9a"/>
        <stop class="stopColor969696 svgShape" offset=".993" stop-color="#2a5fec"/>
        <stop class="stopColor969696 svgShape" offset="1" stop-color="#2a5fec"/>
      </linearGradient>
      <linearGradient id="e" x1="0" x2="1" y1="0" y2="0" gradientTransform="matrix(0 -3763.64 -3763.64 0 5400 3763.64)" gradientUnits="userSpaceOnUse" spreadMethod="pad">
        <stop class="stopColore3e2e2 svgShape" offset="0" stop-color="#f7da9a"/>
        <stop class="stopColor969696 svgShape" offset=".993" stop-color="#2a5fec"/>
        <stop class="stopColor969696 svgShape" offset="1" stop-color="#2a5fec"/>
      </linearGradient>
      <linearGradient id="o" x1="0" x2="1" y1="0" y2="0" gradientTransform="rotate(-90 3552.2004 676.6096) scale(4228.81)" gradientUnits="userSpaceOnUse" spreadMethod="pad">
        <stop class="stopColore3e2e2 svgShape" offset="0" stop-color="#f7da9a"/>
        <stop class="stopColor969696 svgShape" offset=".993" stop-color="#2a5fec"/>
        <stop class="stopColor969696 svgShape" offset="1" stop-color="#2a5fec"/>
      </linearGradient>
    </defs>
    <g fill="rgba(0,0,0,0)" fill-opacity="0,0" class="color000 svgShape">
      <path d="M0 .023h1333.3v933.31H0V.023" class="color333 svgShape"/>
      <g class="color000 svgShape" clip-path="url(#b)" transform="matrix(.13333 0 0 -.13333 0 933.333)">
        <path fill="url(#c)" d="m2278.61 1606.84-261.63 120.77c37.19 81.64 59.4 171.43 63.04 265.96l287.43-9.34c-4.8-132.22-35.19-259.91-88.84-377.39zm-202.85-291.54c-6.57-6.57-13.24-13.01-19.95-19.38l-196.91 210.14c63.75 60.56 116.34 132.69 154.26 213.12l261.6-120.76c-48.62-103.88-115.48-199.6-199-283.12zm-208.48-160.08-137.47 253.38c44.05 25.99 85.07 56.54 122.39 91.08l196.83-210.06c-55.97-52.06-116.92-97.01-181.75-134.4zm494.37-950.021H377.895l497.25 916.531c32.582-17.98 66.043-34.17 100.32-48.43l-35.078-85.409c-7.961 2.519-16.422 3.898-25.215 3.898-45.996 0-83.281-37.277-83.281-83.277s37.285-83.282 83.281-83.282c45.988 0 83.281 37.282 83.281 83.282 0 33.929-20.324 63.07-49.433 76.047l35.019 85.271c109.491-44.37 226.791-69.59 347.771-73.959l-2.85-87.461c-45.09-1.031-81.35-37.828-81.35-83.18 0-46 37.29-83.281 83.28-83.281s83.28 37.281 83.28 83.281c0 43.52-33.4 79.2-75.96 82.911l2.84 87.39c9.56-.261 19.13-.422 28.72-.422 116.48 0 229.99 19.341 336.9 56.391l29.97-85.039c-28.33-13.289-47.99-41.992-47.99-75.352 0-45.988 37.28-83.277 83.28-83.277 45.99 0 83.28 37.289 83.28 83.277 0 45.993-37.29 83.282-83.28 83.282-9.35 0-18.31-1.61-26.7-4.45l-29.81 84.569c51.37 18.32 101.14 40.83 148.97 67.22zM663.777 1315.3c-6.57 6.57-13.011 13.24-19.379 19.95l210.145 196.91c45.613-48.02 97.805-89.7 155.187-123.56l-137.464-253.38c-75.293 43.41-145.387 96.98-208.489 160.08zm-229.761 356.53 270.277 99.51c32.719-86.82 81.941-165.58 143.859-232.48l-210.047-196.83c-90.136 96.92-158.957 208.75-204.089 329.8zm-62.668 349.46c0 9.29.156 18.56.41 27.81l287.519-9.34c-.156-6.16-.468-12.28-.468-18.47 0-84.67 14.941-165.91 42.226-241.29l-270.25-99.5c-39.047 107.81-59.437 222.72-59.437 340.79zm89.582 414.45 261.629-120.77c-37.192-81.64-59.399-171.43-63.047-265.97l-287.418 9.35c4.793 132.22 35.191 259.92 88.836 377.39zm202.847 291.54c6.575 6.57 13.235 13.01 19.953 19.38l196.915-210.14c-63.754-60.55-116.348-132.69-154.266-213.13l-261.598 120.77c48.617 103.88 115.485 199.6 198.996 283.12zm369.573 234.59 95.74-271.64c-90.5-32.66-172.473-83.21-241.75-147.33l-196.832 210.06c100.394 93.36 216.765 163.92 342.842 208.91zm336.42 57.84c9.29 0 18.56-.15 27.81-.4l-9.35-287.53c-6.15.16-12.27.47-18.46.47-81.2 0-159.17-13.87-231.91-39.05l-95.76 271.69c103.99 36.01 214.37 54.82 327.67 54.82zm375.18-72.65-109.45-266.53c-74.03 29.95-154.16 47.78-238.01 51.01l9.34 287.42c117.62-4.26 231.66-28.77 338.12-71.9zm330.81-219.78c6.57-6.57 13.01-13.23 19.38-19.96L1885 2510.42c-67.45 71.01-149.27 128.24-240.9 166.71l109.43 266.45c119.01-49.52 228.33-122.4 322.23-216.3zm229.77-356.53-270.29-99.51c-32.71 86.82-81.94 165.58-143.86 232.48l210.06 196.83c90.13-96.92 158.95-208.75 204.09-329.8zm-695.08-1018.4c35.87 12.94 70.38 28.72 103.31 47.02l137.39-253.23c-46.55-25.69-94.98-47.6-144.96-65.44zm-259.15-41.55c6.16-.16 12.28-.47 18.47-.47 81.2 0 159.17 13.86 231.91 39.04l95.76-271.67c-103.99-36.02-214.38-54.83-327.67-54.83-9.29 0-18.56.15-27.81.41zm-247.26 51.25c74.03-29.95 154.16-47.78 238.01-51.01l-9.34-287.43c-117.62 4.27-231.67 28.79-338.12 71.92zm-8.61 3.39L986.016 1099c-33.356 13.88-65.922 29.64-97.625 47.14l137.389 253.23c22.51-12.5 45.73-23.88 69.65-33.93zm326.89 636.68c1.48 4.06 2.53 8.3 3.04 12.73l640.8-20.83c-3.59-92.61-25.34-180.6-61.78-260.59zm4.37-34.81-11.54 21.27c1.19 1.65 2.31 3.36 3.32 5.14l582.1-268.72c-37.17-78.8-88.7-149.48-151.16-208.82zm17.44-32.14 398.59-425.37c-36.46-33.74-76.52-63.59-119.53-89zm-51.46 35.06c3.07 1.38 5.99 3 8.74 4.88l305.74-563.54c-32.31-17.95-66.14-33.44-101.32-46.14zm-22.9-646.02c-6.04 0-12.01.31-18.02.46l20.83 640.77c3.91.19 7.7.78 11.36 1.74l213.13-604.71c-71.3-24.67-147.72-38.26-227.3-38.26zm-16.92 643.71c3.37-1.07 6.88-1.81 10.48-2.23l-20.83-640.79c-82.15 3.19-160.65 20.65-233.18 49.98zm-14.72 7.19c1.97-1.35 4.04-2.55 6.18-3.65l-243.6-593.18c-23.46 9.86-46.24 21.02-68.32 33.29zm-31.57-19.38-290.21-534.93c-56.077 33.14-107.08 73.9-151.686 120.85zm12.49 41.96c1.5-3.22 3.28-6.26 5.34-9.11l-3.83-7.07-462.283-433.17c-60.66 65.56-108.886 142.73-140.957 227.8zm-1.83 42.76c-1.48-4.05-2.54-8.3-3.05-12.73l-640.787 20.83c3.586 92.62 25.344 180.61 61.773 260.6zm11.07 18.35c-2.75-3.03-5.18-6.35-7.22-9.94l-582.093 268.72c37.16 78.8 88.695 149.48 151.152 208.82zm18.58 13.55c-4.26-1.92-8.24-4.34-11.85-7.21l-438.2 467.64c67.891 62.82 148.21 112.35 236.89 144.36zm20.08 4.79c-3.9-.2-7.69-.78-11.34-1.73l-213.14 604.7c71.29 24.67 147.72 38.26 227.3 38.26 6.04 0 12.01-.3 18.01-.46zm19.74-2.47c-3.37 1.06-6.88 1.8-10.48 2.21l20.83 640.8c82.15-3.18 160.66-20.65 233.18-49.98zm20.59-11.9c-3.62 3.28-7.66 6.1-12.05 8.34l243.6 593.19c89.78-37.71 169.94-93.79 236.05-163.37zm6.34-6.73 467.64 438.2c60.66-65.56 108.89-142.73 140.96-227.8l-601.73-221.55c-1.86 4-4.16 7.74-6.87 11.15zm-740.472-16.74 640.772-20.82c.21-4.18.86-8.23 1.93-12.11L714.063 1784.8c-26.727 73.88-41.372 153.5-41.372 236.49 0 6.04.301 12.01.457 18.01zm1393.242-36.02-640.77 20.82c-.21 4.18-.86 8.23-1.93 12.11l601.79 221.57c26.73-73.88 41.37-153.5 41.37-236.49 0-6.04-.31-12.01-.46-18.01zm301.8 18.01c0-9.29-.15-18.56-.41-27.81l-287.52 9.34c.16 6.16.47 12.28.47 18.47 0 84.67-14.94 165.91-42.22 241.28l270.24 99.51c39.05-107.8 59.44-222.72 59.44-340.79zm207.85 44.4c-43.63 0-79.37-33.57-82.92-76.29l-97.59 3.18c.26 9.55.42 19.11.42 28.71 0 121.39-20.97 239.55-61.14 350.38l81.53 30.02c12.8-29.54 42.19-50.22 76.42-50.22 46 0 83.28 37.29 83.28 83.29 0 45.99-37.28 83.28-83.28 83.28-45.99 0-83.28-37.29-83.28-83.28 0-8.49 1.29-16.67 3.65-24.39l-81.54-30.02c-46.41 124.5-117.19 239.52-209.9 339.18l63.85 59.83c14.95-14.28 35.16-23.1 57.46-23.1 46 0 83.28 37.28 83.28 83.28s-37.28 83.28-83.28 83.28c-45.99 0-83.28-37.28-83.28-83.28 0-20.36 7.33-38.99 19.46-53.46l-63.78-59.78c-6.58 6.94-13.23 13.83-20.01 20.61-96.54 96.54-208.94 171.46-331.31 222.37l35.08 85.42c7.95-2.53 16.42-3.91 25.21-3.91 46 0 83.28 37.28 83.28 83.28 0 45.99-37.28 83.28-83.28 83.28s-83.28-37.29-83.28-83.28c0-33.93 20.32-63.07 49.43-76.05l-35.02-85.27c-109.49 44.37-226.79 69.59-347.77 73.96l3.8 116.86 2.64-.13c46 0 83.29 37.28 83.29 83.28 0 45.99-37.29 83.28-83.29 83.28-45.99 0-83.28-37.29-83.28-83.28 0-41.95 31.05-76.56 71.4-82.34l-3.81-117.33c-9.55.26-19.11.43-28.71.43-116.49 0-229.98-19.36-336.9-56.4l-33.608 95.34c30.288 12.47 51.628 42.24 51.628 77.02 0 45.99-37.29 83.28-83.285 83.28-45.988 0-83.281-37.29-83.281-83.28s37.293-83.28 83.281-83.28c7.958 0 15.618 1.18 22.903 3.26l33.612-95.35c-129.667-46.25-249.354-118.82-352.593-214.86l-60.961 65.07c13.614 14.82 21.993 34.53 21.993 56.24 0 46-37.289 83.28-83.282 83.28-45.996 0-83.281-37.28-83.281-83.28 0-45.99 37.285-83.28 83.281-83.28 20.95 0 40.039 7.79 54.672 20.56l60.809-64.89c-6.945-6.57-13.824-13.22-20.61-20-85.871-85.87-154.605-184.3-204.582-291.11l-77.41 35.73c2.805 8.33 4.387 17.23 4.387 26.51 0 45.99-37.285 83.28-83.281 83.28-45.996 0-83.282-37.29-83.282-83.28 0-46 37.286-83.28 83.282-83.28 33.433 0 62.187 19.75 75.437 48.17l77.016-35.55c-55.188-120.81-86.453-252.15-91.363-388.13l-99.407 3.23c-1.238 44.92-37.953 80.97-83.164 80.97-45.996 0-83.281-37.29-83.281-83.28 0-46 37.285-83.29 83.281-83.29 43.653 0 79.395 33.61 82.93 76.35l99.297-3.23c-.258-9.55-.422-19.12-.422-28.71 0-121.39 20.977-239.55 61.141-350.38l-81.528-30.02c-12.801 29.53-42.183 50.21-76.422 50.21-45.996 0-83.281-37.28-83.281-83.28 0-45.99 37.285-83.28 83.281-83.28 45.996 0 83.282 37.29 83.282 83.28 0 8.49-1.289 16.68-3.649 24.39l81.539 30.02c46.406-124.5 117.184-239.52 209.899-339.18L554 1263.22c-14.945 14.28-35.156 23.1-57.461 23.1-45.996 0-83.281-37.29-83.281-83.28s37.285-83.28 83.281-83.28c45.988 0 83.281 37.29 83.281 83.28 0 20.36-7.332 38.99-19.465 53.46l63.79 59.77c6.57-6.93 13.218-13.81 20.003-20.6 65.024-65.02 137.258-120.19 214.868-164.87L356.84 205.199h-90.125v-26.457h-44.137v-52.551H2516.96v52.551h-44.13v26.457h-90.13L1880.53 1130.8c66.89 38.51 129.75 84.87 187.48 138.57l81.46-86.93c-17.47-15.27-28.56-37.66-28.56-62.68 0-46 37.29-83.29 83.28-83.29 46 0 83.28 37.29 83.28 83.29 0 45.99-37.28 83.28-83.28 83.28-17.63 0-33.96-5.52-47.42-14.87l-81.98 87.49c6.93 6.58 13.82 13.23 20.6 20.01 85.87 85.87 154.61 184.3 204.59 291.11l90.73-41.88c-1.65-6.53-2.61-13.32-2.61-20.36 0-46 37.29-83.28 83.28-83.28s83.28 37.28 83.28 83.28-37.29 83.28-83.28 83.28c-35.68 0-66.03-22.48-77.89-54.02l-89.66 41.4c55.18 120.81 86.45 252.14 91.36 388.13l97.69-3.17c1.2-44.95 37.93-81.03 83.16-81.03 46 0 83.29 37.29 83.29 83.28 0 46-37.29 83.28-83.29 83.28"/>
      </g>
      <g class="color000 svgShape" clip-path="url(#d)" transform="matrix(.13333 0 0 -.13333 0 933.333)">
        <path fill="url(#e)" d="M4700 0v2880.7l190.91 53.51v187.29l318.18 115.94v321.07l345.46 205.13 172.72-44.6v-338.9l136.37-35.68v-160.53l118.18-26.76V2978.8l118.18-26.75V0H4700"/>
      </g>
      <g class="color000 svgShape" clip-path="url(#f)" transform="matrix(.13333 0 0 -.13333 0 933.333)">
        <path fill="url(#g)" d="M8220 5233.9v63.62h-80v200.66h-31.72v50.46H7728v58.5h-184v-58.5h-32v83.95h-184v-83.95h-76.28v-50.46H7220v-200.66h-80v-63.62h-40V0h1160v5233.9h-40"/>
      </g>
      <g class="color000 svgShape" clip-path="url(#h)" transform="matrix(.13333 0 0 -.13333 0 933.333)">
        <g class="color000 svgShape" clip-path="url(#i)">
          <path fill="url(#j)" d="M9069 0v3026h5v1h7v1h7v1h7v1h8v1h7v1h7v1h7v1h7v1h7v1h8v1h7v1h7v1h7v1h7v1h8v1h7v1h7v1h7v1h7v1h7v1h8v1h7v1h7v1h7v1h7v1h8v1h7v1h7v1h7v1h7v1h7v1h8v1h7v1h7v1h7v1h7v1h8v1h7v1h7v1h7v1h7v1h7v1h8v1h7v1h7v1h7v1h7v1h8v1h7v1h7v1h7v1h7v1h7v1h8v1h7v1h7v1h7v1h7v1h8v1h7v1h7v1h7v1h7v1h8v1h7v1h7v1h7v1h7v1h7v1h8v1h7v1h7v1h7v1h4v146h2v1h2v1h3v1h2v1h2v1h3v1h2v1h3v1h2v1h2v1h3v1h2v1h2v1h3v1h2v1h3v1h2v1h2v1h3v1h2v1h2v1h3v1h2v1h3v1h2v1h2v1h3v1h2v1h3v1h2v1h2v1h3v1h2v1h2v1h3v1h2v1h3v1h2v1h2v1h3v1h2v1h2v1h3v1h2v1h3v1h2v1h2v1h3v1h2v1h2v1h3v1h2v1h3v1h2v1h2v1h3v1h2v1h3v1h2v1h2v1h3v1h2v1h2v1h3v1h2v1h3v1h2v1h2v1h3v1h2v1h2v1h3v1h2v1h3v1h2v1h2v1h3v1h2v1h3v1h2v1h2v1h3v1h2v1h2v1h3v1h2v1h3v1h2v1h2v1h3v1h2v1h2v1h3v1h2v1h3v1h2v1h2v1h3v1h2v1h2v1h3v1h2v1h3v1h2v1h2v1h3v1h2v1h3v1h2v1h2v1h3v1h2v1h2v1h3v1h2v1h3v1h2v1h2v1h3v1h2v1h2v1h3v1h2v1h3v1h2v1h2v1h3v1h2v1h3v1h2v1h2v1h3v1h2v1h2v1h3v1h2v1h3v1h2v1h2v1h3v1h2v1h2v1h3v1h2v1h3v1h2v1h2v1h3v1h2v1h2v1h3v1h2v1h3v1h2v1h2v1h3v1h2v1h3v1h2v1h2v1h3v1h2v1h2v1h3v1h2v1h3v1h2v1h1V0"/>
        </g>
      </g>
      <g class="color000 svgShape" clip-path="url(#k)" transform="matrix(.13333 0 0 -.13333 0 933.333)">
        <g class="color000 svgShape" clip-path="url(#l)">
          <path fill="url(#m)" d="M0 0v2479h3v-1h6v-1h7v-1h6v-1h6v-1h6v-1h6v-1h7v-1h6v-1h6v-1h6v-1h6v-1h6v-1h7v-1h6v-1h6v-1h6v-1h6v-1h7v-1h6v-1h6v-1h6v-1h6v-1h7v-1h6v-1h6v-1h6v-1h6v-1h7v-1h6v-1h6v-1h6v-1h6v-1h7v-1h6v-1h6v-1h6v-1h6v-1h7v-1h6v-1h6v-1h6v-1h6v-1h7v-1h6v-1h6v-1h6v-1h6v-1h6V0"/>
        </g>
      </g>
      <g class="color000 svgShape" clip-path="url(#n)" transform="matrix(.13333 0 0 -.13333 0 933.333)">
        <path fill="url(#o)" d="M3500 3916.55v187.36l-37.27 1.88v70.11l-214.32 52.91h-391.36l-409.99-63.49-149.09-74.07v-55.9l-37.28-2.82V3854.1l37.28 7.14v-58.32l-37.28-11.26V0H3500v3845.18l-37.27 6.37v65H3500"/>
      </g>
      <path fill="#fbdb82" d="m528.3481243 780.7221487 7.8064715 8.2037949-1.6772914 1.7439564h-6.9664925zm1.4599635-17.3488996 6.7038324 6.8611618-7.9558011 8.0211328zm1.2199695-14.4916377 5.5371949 5.5451947-6.5558361 6.5651692zm1.0493071-12.4690216 4.4878878 4.4878878-5.3132005 5.3132005zm.8946443-10.6357341 3.6439089 3.7052407-4.319892 4.319892zm4.4678883-7.6758081 4.2758931 6.2825096-4.2678933 4.2678933-4.1972284-4.2678933zm-3.4012483-4.9972084 2.6879328 3.9492346-3.4559136 5.1825371zm6.3745073-1.5826271-2.9825921 4.4758881-3.0465905-4.4758881zm1.3253002 10.8063965-3.5945768-5.2825346 2.9252602-4.386557zm.7973134 11.4970459-4.2638934-4.3345583 3.706574-3.706574zm.8479788 12.2316942-5.1558711-5.1558711 4.4865545-4.4865545zm1.0079748 14.5423031-6.1638459-6.1718457 5.3638659-5.3705324zm-11.8477038-25.3806988 4.8972109-4.8972109 4.8105464 4.893211-4.8545453 4.8558786zm10.7797305 12.4423556-5.9278518 5.9345183-5.9265185-5.9345183 5.9278518-5.9278518zm-5.9838504 21.7394565-6.9558261-7.119822 7.0118247-7.0211578 7.0091581 7.0184912zm8.2464605 8.439789-7.4251477-7.5984767 6.4478388-6.4998375zm.1933285 2.7852637.6959826 10.0450822h-7.0384907l-1.6546253-1.7386232zm-16.8889111-1.0373074 8.4424556-8.5117872 8.0624651 8.2517937-8.4251227 8.7517812zm8.9237769 11.0823896h-1.7052907l.8573119-.8906444zm811.0983887-53.332-6.853162 2.013283v7.0478238l-33.1405048-5.0332075-26.2846762 3.0199245v96.16266254l-13.99965 10.41067306V684.0059l-25.3327-10.6664h-22.6661v-5.3332h-37.3324v6.6665h-35.9991v215.9946h-46.6655V755.5814439c0-4.5545528-4.1265635-8.2477938-9.2171029-8.2477938l-.1159971.5959851v-17.9475513c0-2.2692766-2.0559486-4.1105639-4.5932185-4.1105639-30.2445772-1.59996-60.5664858-1.59996-90.811063 0-2.5372699 0-4.5932185 1.8412873-4.5932185 4.1105639v17.9475513l-.1159971-.5959851c-5.0905394 0-9.2171029 3.693241-9.2171029 8.2477938V829.3356H961.3093V694.6723l-33.3325-18.6662h-18.6662v-18.6662h-93.331v14.6663H719.982v7.9998h-30.6659v14.6663H653.317v167.9958h-73.3315v-61.52659513H559.986V790.6699h-12.333025l-1.9439514-28.0512987c.1639959-.226661.1479963-.5426531-.0506654-.7493146l-.9693091-13.9689841c.079998-.1786622.0679983-.386657-.0373324-.5546528l-1.5892936-22.9354266-.8946443-12.8890111h3.6545753v-1.5679608h-7.2504854v-16.5755856c1.133305-.3373249 1.959951-1.3852987 1.959951-2.6279343 0-1.5159621-1.2293026-2.7439314-2.7439314-2.7439314s-2.7439314 1.2279693-2.7439314 2.7439314c0 1.2426356.8279793 2.2906094 1.959951 2.6279343v16.5755856h-7.0544903v1.5679608h3.0119247l.026666.039999-6.6571669 79.1086889H406.6565v9.59976h-11.9997v14.8356291h-14.6663V909.3336h-22.6661v-333.325h3.9999v-7.9998h-9.3331v-15.9996h-94.6643v15.9996h-9.3331v7.9998h5.2825346v27.4739798h-26.0113497l-23.8447372 19.2555186V838.6687H180.66215V729.3381l-34.6658-14.6663h-89.3311l-38.6657 13.333v170.6624H-1.3333v35.9991h1355.9661V739.351183l-5.719857-2.013283" class="colore1e2e3 svgShape"/>
    </g>
  </svg>
</svg>
