<?xml version="1.0" encoding="utf-8"?>
<!-- Generator: Adobe Illustrator 24.1.0, SVG Export Plug-In . SVG Version: 6.00 Build 0)  -->
<svg version="1.1" id="ee2d0d6a-f327-4862-90c9-82b3fae86934"
	 xmlns="http://www.w3.org/2000/svg" xmlns:xlink="http://www.w3.org/1999/xlink" x="0px" y="0px" viewBox="0 0 281.9 302.9"
	 style="enable-background:new 0 0 281.9 302.9;" xml:space="preserve">
<style type="text/css">
	.st0{fill:#0943EA;}
	.st1{fill:#EAB009;}
</style>
<path class="st0" d="M18.1,225.7c-10,10-10,26.3,0,36.3c4.8,4.8,11.3,7.5,18.1,7.5c2.9,0,5.8-0.5,8.5-1.5v-8.3
	c-2.6,1.4-5.6,2.2-8.5,2.1c-9.9,0.2-18.2-7.7-18.4-17.6c-0.2-9.9,7.7-18.2,17.6-18.4c-2.6-2.1-5.2-4.2-7.8-6.3
	C24.1,220.8,20.8,222.9,18.1,225.7z"/>
<path class="st0" d="M27.7,219.5c2.6,2.1,5.2,4.2,7.8,6.3c0.3,0,0.5,0,0.8,0c3,0,5.9,0.7,8.5,2.2v-8.4
	C39.3,217.7,33.2,217.7,27.7,219.5L27.7,219.5z"/>
<path class="st0" d="M47,269h9l4.4-7c-0.5-3.4-1.4-6.8-2.7-10L47,269z"/>
<path class="st0" d="M57.8,252c1.3,3.2,2.2,6.6,2.7,10l3-4.8h17.1V269h7.7v-50.3h-9.4L57.8,252z M80.5,249.6H68.3l12.3-19.4
	L80.5,249.6z"/>
<polygon class="st0" points="104.4,218.7 96.8,218.7 96.8,269 122.4,269 122.4,261.4 104.4,261.4 "/>
<path class="st0" d="M128.6,269h7.6v-32.9c-2.8-1.2-5.4-3-7.6-5.1V269z"/>
<path class="st0" d="M128.6,231c2.2,2.2,4.8,3.9,7.6,5.1v-17.4h-7.6V231z"/>
<path class="st0" d="M157.5,240.5c0,0-7.2-0.2-8.3-0.3v29.1h7.6v-21.2h0.7c-0.3-0.7-0.5-1.4-0.8-2
	C155.4,244.1,159.2,241.9,157.5,240.5z"/>
<path class="st0" d="M173.5,247c2.6-1.1,4.8-2.9,6.4-5.2c4.5-6.7,2.7-15.7-4-20.2c-2.4-1.6-5.1-2.4-8-2.5h-18.6v7.6
	c5.4,0,5,0.1,7.6,0l0,0h10.9c1.8,0,3.6,0.7,4.9,2c1.3,1.3,2,3.1,2,4.9c0,3.8-3.1,6.9-6.9,6.9l0.1,0h-10.3c-0.3,0.1-2.1,3.6-0.7,5.6
	c0.3,0.7,0.5,1.4,0.8,2h7.9l11,21.2h8.6L173.5,247z"/>
<polygon class="st0" points="189.4,269.4 215.1,269.4 215.1,261.7 197,261.7 197,248 210.9,248 210.9,240.3 197,240.3 197,226.7 
	215.1,226.7 215.1,219.1 189.4,219.1 "/>
<polygon class="st0" points="256.1,219.1 247.3,219.1 236.6,237.1 226,219.1 217.1,219.1 232.2,244.6 217.6,269.4 226.5,269.4 
	236.6,252.2 246.8,269.4 255.6,269.4 241.1,244.6 "/>
<polygon class="st0" points="31,279.7 37.6,279.7 37.6,302.6 39.9,302.6 39.9,279.7 46.5,279.7 46.5,277.3 31,277.3 "/>
<path class="st0" d="M81.7,294.2c0,3.5-2.9,6.4-6.4,6.4s-6.4-2.9-6.4-6.4v-16.8h-2.3v16.8c0,4.8,3.9,8.7,8.7,8.7s8.7-3.9,8.7-8.7
	l0,0v-6.7c-0.9-0.4-1.6-0.9-2.3-1.5V294.2z"/>
<path class="st0" d="M81.7,286c0.7,0.6,1.5,1.1,2.3,1.5v-10.1h-2.3V286z"/>
<polygon class="st0" points="119.8,298.4 107.3,277.3 104.8,277.3 104.8,302.6 107.1,302.6 107.1,281.5 119.7,302.6 122.2,302.6 
	122.2,277.3 119.8,277.3 "/>
<rect x="142.4" y="277.2" class="st0" width="2.3" height="25.4"/>
<path class="st0" d="M172.6,279.4c1.8,0,3.5,0.7,4.7,2l1.7-1.6c-1.6-1.7-3.9-2.7-6.3-2.7c-1.9-0.2-3.8,0.3-5.5,1.2
	c0.4,0.7,0.8,1.3,1.2,2C169.6,279.6,171.1,279.3,172.6,279.4z"/>
<path class="st0" d="M178.8,292.2c-0.5-0.4-1-0.8-1.4-1.3c-1.5-1-3.1-1.7-4.9-2.2c-4.1-1.2-6.1-2.8-6-5c0-1.4,0.7-2.8,2-3.5h0
	c-0.4-0.7-0.8-1.3-1.2-2h-0.1c-1.9,1.1-3.1,3.2-3.1,5.4c-0.1,1.4,0.4,2.8,1.4,3.8c1.3,1.5,3.4,2.7,6.4,3.5c4.1,1.2,6.1,2.9,6,5
	c-0.1,1.2-0.7,2.3-1.7,3.1c-1.3,1-2.9,1.5-4.5,1.4c-1.1-0.1-2.3-0.4-3.3-0.9c-1-0.5-1.9-1.4-2.3-2.4l-2.2,0.8
	c0.6,1.5,1.7,2.8,3.2,3.6c1.4,0.8,2.9,1.2,4.5,1.3h0.5c2,0.1,4-0.6,5.6-1.9c1.5-1.1,2.5-2.9,2.6-4.8c0.1-1.4-0.4-2.8-1.4-3.9
	L178.8,292.2z"/>
<path class="st0" d="M177.3,291c0.5,0.4,1,0.9,1.4,1.3C178.3,291.8,177.8,291.3,177.3,291z"/>
<rect x="199.3" y="277.2" class="st0" width="2.3" height="25.4"/>
<polygon class="st0" points="234.9,279.7 234.9,277.3 222,277.3 222,302.6 234.9,302.6 234.9,300.3 224.3,300.3 224.3,291.1 
	232.7,291.1 232.7,288.8 224.3,288.8 224.3,279.7 "/>
<path class="st0" d="M269.3,91.1c-8.9-11.9-13.4-17.8-13.6-17.7c-0.2,0.2,8.5,12.6,26.2,37.2c-7.7-1.4-13.3-6.6-19.3-12
	c-1.8-1.6-3.6-3.3-5.5-4.9c-2.3-2.7-4.6-5.5-6.9-8.2c3.8,3.1,7.6,6.1,11.4,9.2c4.3,3.5,8.5,6.9,12.8,10.3l1.5-1.2
	c-1.2-1.7-2.4-3.7-3.6-6C270.9,95.3,270,93.1,269.3,91.1z"/>
<path class="st0" d="M272.8,58.8L272.8,58.8c0.1,2.4-0.3,4.8-1.2,7l-1.9-0.6l-1.8-0.7c-13.4-5.4-24.5-12.8-35.2-20l-3.3-2.2
	c-5.1-3.4-11.2-5.1-17.3-4.9c-4.9,0.1-9.8,0.7-14.6,1.6c-13.9,2-24.9,9-32.6,20.5c-13.2,19.7-13.5,47.5-9.5,67.3
	c-8.2-12.7-13.7-34.1-0.7-68.2c4.9-13.1,15.5-21.4,32.5-25.3c5.9-1.4,11.9-2.2,18-2.2c17.8,0,28,7.6,37.9,15
	C251.8,52.6,260.1,58.8,272.8,58.8z"/>
<path class="st0" d="M269.7,65.2l1.9,0.6c-2,4.9-6.6,7.3-14.1,7.6l-1.8,0.1l1,1.5c3.4,5,13.4,17.3,16.9,21.6
	c1.6,2.6,3.5,7.5,4.2,8.4l-5.6-7c-4.4-5.5-13.4-16.2-18.7-20.9l-0.2-0.2l-0.2-0.1c-2.4-0.6-5.3-1.3-7.5-3c2.8-3.8,6.7-4.1,11.2-4.4
	c3.8-0.3,7.7-0.5,11.4-3L269.7,65.2z"/>
<path class="st0" d="M257.7,92.9l-0.6,0.8c-1.9-1.6-3.9-3-6-4.3l-1.1-0.7l-0.3,1.3l-3.3,11.6c-2.8,9.7-5.4,18.9-7.9,28.4
	c-0.3,1.3-0.5,2.7-0.8,4.2c-1.4,7.8-3,17.5-9.9,17.5c-1.8-0.1-3.5-0.5-5.1-1.3c-0.1-0.1-0.3-0.2-0.4-0.4c-0.4-0.5-0.9-0.8-1.5-0.9
	h-0.6c-10.3,0-11.6-7.4-13-16c-0.4-3.3-1.2-6.5-2.4-9.7l-0.3-0.7l-3.1,0.2l-0.2,0.8c-3.4,17,5.1,32,13.3,46.5
	c3.4,5.7,6.4,11.5,9.1,17.5v0.1v0.1c5.6,9.4,6.1,16.6,1.6,21.6c-0.4,0.6-1,0.9-1.7,1c-0.8-0.1-1.6-0.3-2.2-0.8c-3-1.6-6.2-3-9.4-4
	c-2.7-0.9-5.4-2-8-3.3l-10.1-5.3c-25.8-13.4-52.4-27.2-77.2-43.3c-9.4-5.8-13-14.9-17-25.3c-4.8-12.4-10.3-26.5-26.7-41
	c-8.3-8-16.9-15.6-26-22.7c-3.9-3.4-8-6.5-12.5-9.2c-6.9-4.5-14.1-9.2-18-16.4c-2-5-4.4-10.1-6.8-14.9C5.8,16.3,1.9,8.3,0,0
	C16.1,5.4,31.9,13.8,47.2,22c8.9,4.8,18.1,9.7,27.3,14C117,60.5,123.8,84,131,108.8c8.7,30,17.6,61,90.4,95.5l1.2,0.6l0.2-1.3
	c1.7-11.2-4.4-19.5-10.4-27.5c-3-3.8-5.6-7.8-7.8-12.1l0-0.1c-10.1-16-9.3-24.9-8.5-34.3c0.5-5.7,1-11.6-1.1-19.2v-0.1l-0.1-0.1
	c-5.4-9-5.8-22.3-0.9-30.9c3-5.7,8.9-9.2,15.3-9c1,0,2,0.1,3,0.2l-2,1.5c-9.4,7.2-17.6,13.5-11.6,27.6c1.3,2.8,2.9,5.4,4.7,7.9
	c2.7,3.9,5.2,7.5,5.7,12v0.1v0.1c0.7,1.9,1,5.2,1.2,8.6c0.5,7.7,1.1,16.5,7.7,16.5h0.2c0.3,0,0.6-0.1,0.8-0.1
	c1.3,0.1,2.5,0.2,3.8,0.4c1.5,0.3,2.9,0.4,4.4,0.5c1.4,0.1,2.9-0.3,3.9-1.3c0.9-1,1.3-2.2,1.1-3.5c-0.1-5.1,1-10.2,2-15.2
	c1.6-7.8,3.2-15.9,0.5-24c-1.8-4.5-1.6-9.8-1.3-15.4l8.4,12.2l0.8-1.2c0.8-1.5,1.6-3,2.1-4.6c1.2-3,2.9-7.4,4.5-7.4
	c0.6,0,1.3,0.6,2.1,1.8l0,0v0.1C253.2,89.1,255.3,91.1,257.7,92.9z"/>
<path class="st1" d="M80,102.4c11.1,11.4,9.9,26.4,12.9,41.4c-44.4-34.2-50.9-23.5-70.6-79.2C43,72.6,63.1,87.1,80,102.4z"/>
<path class="st1" d="M160.1,230.5c4.1,1.1,4.1,3.5,5.5,5.6c-15.9-2.5-17.8-0.4-26-7.8C146.8,228.3,154,229.2,160.1,230.5z"/>
<path class="st0" d="M142.7,224.2c-2.1-3.4-2.1-3.4-3.6-5.4c5.7,0.7,9.6,0,12.6,0.5c5.6,0.9,8.2,1.7,13.7,6.3
	C158.3,225.9,145.2,228.7,142.7,224.2z"/>
<path class="st0" d="M265.3,88.8c6.8,8.9,6.8,8.9,6.8,8.9"/>
</svg>
