<svg id="bad460a5-8d1c-4320-a458-b0a45fe9c2dd" data-name="OBJECTS" xmlns="http://www.w3.org/2000/svg" viewBox="0 0 167.57 73.29"><defs><style>.b75060ae-03ba-4e9d-a352-92037deec5c0{fill:#5d5d5d;opacity:0.4;}.a934308d-f275-4a6d-82f3-eabbc3499c15,.aabf27ea-5348-4632-b316-3117306113aa,.ac72c21e-cff1-4006-b985-2421f7042d35,.b0d449f3-0449-4bb0-9d3b-5718d2c4f263,.b75060ae-03ba-4e9d-a352-92037deec5c0,.bd329503-63bf-42bd-97d6-9f5ce0ba9214,.be0d971f-f422-44fd-9863-85423f034925,.e35a791b-da6a-4d5a-b393-96eaaadbc007,.e4fad77d-1d39-4a64-a864-4bed75075b8f,.f7de1be8-0964-4b90-9a47-bd4a15a4f0ce{fill-rule:evenodd;}.b0d449f3-0449-4bb0-9d3b-5718d2c4f263{fill:#2f2f2f;}.e35a791b-da6a-4d5a-b393-96eaaadbc007{fill:#e8be56;}.aabf27ea-5348-4632-b316-3117306113aa{fill:#eab009;}.e4fad77d-1d39-4a64-a864-4bed75075b8f{fill:#fff;}.a934308d-f275-4a6d-82f3-eabbc3499c15{fill:#e8c774;}.bd329503-63bf-42bd-97d6-9f5ce0ba9214{fill:#e8c469;}.f7de1be8-0964-4b90-9a47-bd4a15a4f0ce{fill:#003593;}.ac72c21e-cff1-4006-b985-2421f7042d35{fill:#557be9;}</style></defs><g id="e4d25007-b9fa-491c-b6bf-a832324e3c64" data-name="8"><path class="b75060ae-03ba-4e9d-a352-92037deec5c0" d="M486.67,453.84c0,2.15-34.92,3.9-78,3.9s-78-1.75-78-3.9,34.92-3.91,78-3.91S486.67,451.68,486.67,453.84Z" transform="translate(-319.1 -384.45)"/><path class="b0d449f3-0449-4bb0-9d3b-5718d2c4f263" d="M440.57,384.88v5.72h2.68c5.53,0,11.06.12,16.58.11a4.38,4.38,0,0,1,3.94,1.85c5,6.81,10,13.58,15,20.41a4.13,4.13,0,0,1,.64,2.36c0,8.75,0,17.5,0,26.25,0,.83,0,1.66,0,2.39-1.85.68-23.07.83-25.84.22,0-.71.13-1.44.13-2.18a17.62,17.62,0,0,0-2-9.09,12.43,12.43,0,0,0-8.38-6.29,24.37,24.37,0,0,0-8.93-.19A12.91,12.91,0,0,0,423.62,437c-.35,2.32-.46,4.68-.71,7.33H394c0-.85,0-1.82,0-2.78a17.15,17.15,0,0,0-2.07-8.85,12.56,12.56,0,0,0-8.05-6.05,24.33,24.33,0,0,0-9.16-.25,13,13,0,0,0-10.77,10.81c-.22,1.74-.31,3.5-.45,5.25-.05.6-.07,1.19-.1,1.92H348.82V431.92l-9.84-.05H319.1a9.44,9.44,0,0,1,.84-1.46c1.05-1.13,2.2-2.16,3.18-3.33a4.31,4.31,0,0,1,3.64-1.53c6.37.05,12.74,0,19.11,0h2.62v-3.38c-3.67-.47-7.4.13-11.47-.42,1.45-2,2.63-3.75,4-5.37a2.8,2.8,0,0,1,1.88-.61c1.76-.08,3.52,0,5.48,0v-4.62H333.75c.17-1.69,1.29-3.81,3.33-6.42h11.3v-7.51h-17a38.54,38.54,0,0,1,4.15-5.55c.3-.37,1.11-.42,1.68-.43,2.92,0,5.84,0,8.75,0h2.58v-6.66h3c10.9.07,21.8.22,32.7.19,14.05,0,28.1-.25,42.14-.29C431,384.44,435.58,384.72,440.57,384.88ZM354.63,432c0,.92,0,1.6,0,2.28,0,2.38,0,2.37-2.47,2.46-.67,0-1.51-.28-2,.66,1.69.67,9.85.74,12,.15,2.48-8.6,7.18-12.68,15.25-13.06a18,18,0,0,1,10.83,2.44,14.65,14.65,0,0,1,6.9,10.86h26.66c1.85-9.47,8.15-13.23,17.13-13.43v-38c-.58-.07-1-.15-1.46-.16-4.52-.11-9.05-.29-13.58-.28-10.82,0-21.64.22-32.47.23-12.82,0-25.64-.08-38.46-.13h-2.79v5.2h20.44c-.83,1.68-1.54,3-2.15,4.39a2.52,2.52,0,0,1-2.69,1.63c-4.45-.09-8.9,0-13.35,0-.75,0-1.49.07-2.27.11v28.14l13.08.33-1.55,2.91c-1.19,2.26-2.81,3.76-5.64,3.19A6.66,6.66,0,0,0,354.63,432Zm115.67,5.22c.49-3.48-.28-6.85.52-10.29H478c0-4.13.05-8,0-11.93a4,4,0,0,0-.95-2c-4.76-6.5-9.58-13-14.33-19.46a3.14,3.14,0,0,0-2.87-1.45c-5.91.05-11.82,0-17.72,0a15.57,15.57,0,0,0-1.57.17c0,10.79-.07,21.48.1,32.1,7.43,1.34,12.29,4.8,14.33,12.85Zm-148-6.92h36.55l2.17-3.25h-2.94c-10,0-19.95.09-29.91-.07A6.13,6.13,0,0,0,322.3,430.3Zm45.76-37.81h-29.4c-2.72,0-3.24.39-4.28,3.33h17.95c4.14,0,8.28-.05,12.42,0a2.22,2.22,0,0,0,2.48-1.53C367.41,393.82,367.66,393.36,368.06,392.49Zm109.67,46.4h-22.5c0,.75-.07,1.35-.09,1.95s0,1.33,0,2c3.13.52,21,.37,22.76-.2,0-.7,0-1.46,0-2.21C477.88,439.93,477.8,439.48,477.73,438.89Zm-56.2.73c-3.25-.46-24.25-.32-25.95.16v3.14h25.95Zm-59.63-.06H350.41v3.22c2.65.47,9.86.39,11.49-.12Zm-26-30h12.43v-3.22c-3.34,0-6.47,0-9.61,0a1.94,1.94,0,0,0-1.34.64A20.87,20.87,0,0,0,335.91,409.54Zm141.85,22.9h-5.64v4.72h5.64ZM339.92,420.33h8.47V417.1c-1.77,0-3.38-.08-5,0a3.15,3.15,0,0,0-1.74.85A17.82,17.82,0,0,0,339.92,420.33Zm132.16,10.36h5.85c-.1-.81-.17-1.44-.24-2h-5.61ZM353,435.13V432h-2.7v3.11Z" transform="translate(-319.1 -384.45)"/><path class="be0d971f-f422-44fd-9863-85423f034925" d="M438.57,453.93c-6.33-.26-13-4.26-13.3-12-.25-7.16,5.92-13.87,12.92-13.68,6.83.18,13.09,5.72,13.13,12C451.37,448.57,444.14,454.3,438.57,453.93Zm10.64-13.22c-.33-6.13-4.13-9.74-10.82-10.23-5.92-.42-11.23,5.06-11,11.11s4.35,9.71,10.91,10.12C444.17,452.07,449.29,446.41,449.21,440.71Z" transform="translate(-319.1 -384.45)"/><path class="be0d971f-f422-44fd-9863-85423f034925" d="M377.83,428.31c6.88-.27,13.39,5.3,13.58,11.73.24,8.31-6.87,13.78-12.05,13.91-7.31.18-13.8-5.2-14-11.79C365.1,434.88,371.28,428.06,377.83,428.31Zm11.49,12.47c-.31-6.15-4-9.76-10.76-10.3-5.92-.47-11.25,5-11.09,11s4.18,9.72,10.84,10.19C384.21,452.12,389.35,446.47,389.32,440.78Z" transform="translate(-319.1 -384.45)"/><path class="e35a791b-da6a-4d5a-b393-96eaaadbc007" d="M354.63,432a6.66,6.66,0,0,1,1.45-.11c2.83.57,4.45-.93,5.64-3.19l1.55-2.91-13.08-.33V397.32c.78,0,1.52-.11,2.27-.11,4.45,0,8.9-.06,13.35,0a2.52,2.52,0,0,0,2.69-1.63c.61-1.38,1.32-2.71,2.15-4.39H350.21V386H353c12.82.05,25.64.15,38.46.13,10.83,0,21.65-.2,32.47-.23,4.53,0,9.06.17,13.58.28.45,0,.88.09,1.46.16v38c-9,.2-15.28,4-17.13,13.43H395.18a14.65,14.65,0,0,0-6.9-10.86,18,18,0,0,0-10.83-2.44c-8.07.38-12.77,4.46-15.25,13.06-2.14.59-10.3.52-12-.15.44-.94,1.28-.63,2-.66,2.43-.09,2.43-.08,2.47-2.46C354.64,433.6,354.63,432.92,354.63,432Z" transform="translate(-319.1 -384.45)"/><path class="aabf27ea-5348-4632-b316-3117306113aa" d="M470.3,437.22H455c-2-8.05-6.9-11.51-14.33-12.85-.17-10.62-.11-21.31-.1-32.1a15.57,15.57,0,0,1,1.57-.17c5.9,0,11.81,0,17.72,0a3.14,3.14,0,0,1,2.87,1.45c4.75,6.5,9.57,13,14.33,19.46a4,4,0,0,1,.95,2c.09,3.9,0,7.8,0,11.93h-7.18C470,430.37,470.79,433.74,470.3,437.22Zm-26.8-17.36c3,.9,28.19.56,30.58-.36,0-1.89.7-3.87-.62-5.7q-5.79-8-11.52-16.08a2.94,2.94,0,0,0-2.67-1.42c-4.53.09-9,.09-13.58.15a10.9,10.9,0,0,0-1.61.26C443.69,404.54,443.54,412.25,443.5,419.86Zm1.06,3.1c.05.22.11.43.16.65,3,.12,5.93.11,8.9,0,.21,0,.4-.5.8-1a38.68,38.68,0,0,0-9.38-.28C444.87,422.34,444.72,422.74,444.56,423Z" transform="translate(-319.1 -384.45)"/><path class="e4fad77d-1d39-4a64-a864-4bed75075b8f" d="M322.3,430.3a6.13,6.13,0,0,1,5.87-3.32c10,.16,19.94.07,29.91.07H361l-2.17,3.25Z" transform="translate(-319.1 -384.45)"/><path class="e4fad77d-1d39-4a64-a864-4bed75075b8f" d="M368.06,392.49c-.4.87-.65,1.33-.83,1.82a2.22,2.22,0,0,1-2.48,1.53c-4.14-.07-8.28,0-12.42,0H334.38c1-2.94,1.56-3.33,4.28-3.33h29.4Z" transform="translate(-319.1 -384.45)"/><path class="aabf27ea-5348-4632-b316-3117306113aa" d="M477.76,439c.06.6.14,1,.14,1.5,0,.75,0,1.51,0,2.21-1.76.55-19.64.44-22.77-.12,0-.62,0-1.28,0-1.95s.07-1.2.11-1.95Z" transform="translate(-319.1 -384.45)"/><path class="aabf27ea-5348-4632-b316-3117306113aa" d="M421.53,439.62v3.3H395.58v-3.14C397.28,439.3,418.28,439.16,421.53,439.62Z" transform="translate(-319.1 -384.45)"/><path class="aabf27ea-5348-4632-b316-3117306113aa" d="M361.9,439.56v3.1c-1.63.51-8.84.59-11.49.12v-3.22Z" transform="translate(-319.1 -384.45)"/><path class="e4fad77d-1d39-4a64-a864-4bed75075b8f" d="M335.91,409.54a20.87,20.87,0,0,1,1.48-2.55,1.94,1.94,0,0,1,1.34-.64c3.14-.05,6.27,0,9.61,0v3.22Z" transform="translate(-319.1 -384.45)"/><path class="a934308d-f275-4a6d-82f3-eabbc3499c15" d="M477.76,432.44v4.72h-5.64v-4.72Z" transform="translate(-319.1 -384.45)"/><path class="e4fad77d-1d39-4a64-a864-4bed75075b8f" d="M339.92,420.33a17.82,17.82,0,0,1,1.76-2.34,3.15,3.15,0,0,1,1.74-.85c1.59-.12,3.2,0,5,0v3.23Z" transform="translate(-319.1 -384.45)"/><path class="e35a791b-da6a-4d5a-b393-96eaaadbc007" d="M472.08,430.69v-2h5.61c.07.58.14,1.21.24,2Z" transform="translate(-319.1 -384.45)"/><path class="bd329503-63bf-42bd-97d6-9f5ce0ba9214" d="M353,435.13h-2.7V432H353Z" transform="translate(-319.1 -384.45)"/><path class="f7de1be8-0964-4b90-9a47-bd4a15a4f0ce" d="M449.21,440.71c.08,5.7-5,11.36-10.94,11-6.56-.41-10.71-3.95-10.91-10.12s5.11-11.53,11-11.11C445.08,431,448.88,434.58,449.21,440.71Zm-3,.26c0-3.89-3.76-7.28-8-7.3s-7.69,3.71-7.74,8.11c-.05,3.9,3.87,7.49,8.13,7.45C442.67,449.19,446.26,445.3,446.21,441Z" transform="translate(-319.1 -384.45)"/><path class="f7de1be8-0964-4b90-9a47-bd4a15a4f0ce" d="M389.32,440.78c0,5.69-5.11,11.34-11,10.93-6.66-.47-10.68-4.06-10.84-10.19s5.17-11.51,11.09-11C385.28,431,389,434.63,389.32,440.78Zm-3,.34c.06-3.88-3.6-7.35-7.86-7.45s-7.9,3.73-7.88,8.19c0,3.84,3.76,7.31,8,7.37C382.6,449.29,386.25,445.49,386.32,441.12Z" transform="translate(-319.1 -384.45)"/><path class="be0d971f-f422-44fd-9863-85423f034925" d="M443.5,419.86c0-7.61.19-15.32.58-23.15a10.9,10.9,0,0,1,1.61-.26c4.53-.06,9.05-.06,13.58-.15a2.94,2.94,0,0,1,2.67,1.42q5.71,8.07,11.52,16.08c1.32,1.83.61,3.81.62,5.7C471.69,420.42,446.54,420.76,443.5,419.86Zm18-20c-1.69-2.57-3.1-2.84-5.12-1-3.47,3.24-6.87,6.56-10.28,9.88a2.82,2.82,0,0,0-1,1.48,42.28,42.28,0,0,0,.12,7.41C451.29,412,456.12,405.71,461.52,399.86Zm11.21,18.71c-.12-1.41.12-2.71-.37-3.59-1.28-2.31-2.88-4.43-4.48-6.81l-9,10.29c.08.16.15.31.22.47Zm-26.1.18c2.1.44,3.65.21,5.06-1.41,4-4.59,8.05-9.06,12.08-13.58a2.72,2.72,0,0,0,.34-.77l-1.61-2ZM467,407l-1.83-2.51-12.7,14.32c1.95.09,3.55.57,4.91-1C460.48,414.25,463.66,410.74,467,407Zm-21.61.09c3.17-2.47,8.69-8,9.26-9.33-3.06.07-6.07-.12-9.26.25Z" transform="translate(-319.1 -384.45)"/><path class="be0d971f-f422-44fd-9863-85423f034925" d="M444.56,423c.16-.22.31-.62.48-.63a38.68,38.68,0,0,1,9.38.28c-.4.53-.59,1-.8,1-3,.08-5.94.09-8.9,0C444.67,423.39,444.61,423.18,444.56,423Z" transform="translate(-319.1 -384.45)"/><path class="be0d971f-f422-44fd-9863-85423f034925" d="M446.21,441c.05,4.33-3.54,8.22-7.61,8.26-4.26,0-8.18-3.55-8.13-7.45,0-4.4,3.61-8.13,7.74-8.11S446.17,437.08,446.21,441Zm-7.84-6a6.69,6.69,0,0,0-6.61,6.6c.08,3.91,2.77,6,6.57,6.26,3.47.21,6.61-3.05,6.65-6.57A6.56,6.56,0,0,0,438.37,435Z" transform="translate(-319.1 -384.45)"/><path class="be0d971f-f422-44fd-9863-85423f034925" d="M386.32,441.12c-.07,4.37-3.72,8.17-7.76,8.11-4.22-.06-8-3.53-8-7.37,0-4.46,3.67-8.3,7.88-8.19S386.38,437.24,386.32,441.12Zm-7.85,6.77a6.87,6.87,0,0,0,6.62-6.64,6.58,6.58,0,0,0-6.65-6.26,6.69,6.69,0,0,0-6.58,6.63C372,445.55,374.72,447.53,378.47,447.89Z" transform="translate(-319.1 -384.45)"/><path class="ac72c21e-cff1-4006-b985-2421f7042d35" d="M461.52,399.86c-5.4,5.85-10.23,12.09-16.26,17.81a42.28,42.28,0,0,1-.12-7.41,2.82,2.82,0,0,1,1-1.48c3.41-3.32,6.81-6.64,10.28-9.88C458.42,397,459.83,397.29,461.52,399.86Z" transform="translate(-319.1 -384.45)"/><path class="f7de1be8-0964-4b90-9a47-bd4a15a4f0ce" d="M472.73,418.57l-13.62.36c-.07-.16-.14-.31-.22-.47l9-10.29c1.6,2.38,3.2,4.5,4.48,6.81C472.85,415.86,472.61,417.16,472.73,418.57Z" transform="translate(-319.1 -384.45)"/><path class="f7de1be8-0964-4b90-9a47-bd4a15a4f0ce" d="M446.63,418.75,462.5,401l1.61,2a2.72,2.72,0,0,1-.34.77c-4,4.52-8.12,9-12.08,13.58C450.28,419,448.73,419.19,446.63,418.75Z" transform="translate(-319.1 -384.45)"/><path class="ac72c21e-cff1-4006-b985-2421f7042d35" d="M467,407c-3.34,3.74-6.52,7.25-9.62,10.82-1.36,1.56-3,1.08-4.91,1l12.7-14.32Z" transform="translate(-319.1 -384.45)"/><path class="f7de1be8-0964-4b90-9a47-bd4a15a4f0ce" d="M445.39,407.09V398c3.19-.37,6.2-.18,9.26-.25C454.08,399.07,448.56,404.62,445.39,407.09Z" transform="translate(-319.1 -384.45)"/><path class="ac72c21e-cff1-4006-b985-2421f7042d35" d="M438.37,435a6.56,6.56,0,0,1,6.61,6.29c0,3.52-3.18,6.78-6.65,6.57-3.8-.22-6.49-2.35-6.57-6.26A6.69,6.69,0,0,1,438.37,435Z" transform="translate(-319.1 -384.45)"/><path class="ac72c21e-cff1-4006-b985-2421f7042d35" d="M378.47,447.89c-3.75-.36-6.5-2.34-6.61-6.27a6.69,6.69,0,0,1,6.58-6.63,6.58,6.58,0,0,1,6.65,6.26A6.87,6.87,0,0,1,378.47,447.89Z" transform="translate(-319.1 -384.45)"/></g></svg>